<?xml version="1.0" encoding="UTF-8" standalone="no"?>
<!DOCTYPE svg PUBLIC "-//W3C//DTD SVG 1.1//EN" "http://www.w3.org/Graphics/SVG/1.1/DTD/svg11.dtd"
[
<!ATTLIST g
  xmlns:vectornator CDATA #FIXED "http://vectornator.io"
  vectornator:layerName CDATA #IMPLIED >
<!ATTLIST g
  xmlns:vectornator CDATA #FIXED "http://vectornator.io"
  vectornator:mask CDATA #IMPLIED >
<!ATTLIST text
  xmlns:vectornator CDATA #FIXED "http://vectornator.io"
  vectornator:width CDATA #IMPLIED >
<!ATTLIST text
  xmlns:vectornator CDATA #FIXED "http://vectornator.io"
  vectornator:text CDATA #IMPLIED >

<!ATTLIST path
  xmlns:vectornator CDATA #FIXED "http://vectornator.io"
  vectornator:blendMode CDATA #IMPLIED >
<!ATTLIST path
  xmlns:vectornator CDATA #FIXED "http://vectornator.io"
  vectornator:shadowColor CDATA #IMPLIED >
<!ATTLIST path
  xmlns:vectornator CDATA #FIXED "http://vectornator.io"
  vectornator:shadowOpacity CDATA #IMPLIED >
<!ATTLIST path
  xmlns:vectornator CDATA #FIXED "http://vectornator.io"
  vectornator:shadowRadius CDATA #IMPLIED >
<!ATTLIST path
  xmlns:vectornator CDATA #FIXED "http://vectornator.io"
  vectornator:shadowOffset CDATA #IMPLIED >
<!ATTLIST path
  xmlns:vectornator CDATA #FIXED "http://vectornator.io"
  vectornator:shadowAngle CDATA #IMPLIED >

<!ATTLIST image
  xmlns:vectornator CDATA #FIXED "http://vectornator.io"
  vectornator:blendMode CDATA #IMPLIED >
<!ATTLIST image
  xmlns:vectornator CDATA #FIXED "http://vectornator.io"
  vectornator:shadowColor CDATA #IMPLIED >
<!ATTLIST image
  xmlns:vectornator CDATA #FIXED "http://vectornator.io"
  vectornator:shadowOpacity CDATA #IMPLIED >
<!ATTLIST image
  xmlns:vectornator CDATA #FIXED "http://vectornator.io"
  vectornator:shadowRadius CDATA #IMPLIED >
<!ATTLIST image
  xmlns:vectornator CDATA #FIXED "http://vectornator.io"
  vectornator:shadowOffset CDATA #IMPLIED >
<!ATTLIST image
  xmlns:vectornator CDATA #FIXED "http://vectornator.io"
  vectornator:shadowAngle CDATA #IMPLIED >

<!ATTLIST g
  xmlns:vectornator CDATA #FIXED "http://vectornator.io"
  vectornator:blendMode CDATA #IMPLIED >
<!ATTLIST g
  xmlns:vectornator CDATA #FIXED "http://vectornator.io"
  vectornator:shadowColor CDATA #IMPLIED >
<!ATTLIST g
  xmlns:vectornator CDATA #FIXED "http://vectornator.io"
  vectornator:shadowOpacity CDATA #IMPLIED >
<!ATTLIST g
  xmlns:vectornator CDATA #FIXED "http://vectornator.io"
  vectornator:shadowRadius CDATA #IMPLIED >
<!ATTLIST g
  xmlns:vectornator CDATA #FIXED "http://vectornator.io"
  vectornator:shadowOffset CDATA #IMPLIED >
<!ATTLIST g
  xmlns:vectornator CDATA #FIXED "http://vectornator.io"
  vectornator:shadowAngle CDATA #IMPLIED >

<!ENTITY % SVG.filter.extra.content  "| feDropShadow" >
<!ELEMENT feDropShadow EMPTY>
<!ATTLIST feDropShadow
  xmlns:svg CDATA #FIXED "http://www.w3.org/Graphics/SVG/1.1/DTD/svg11.dtd"
  dx CDATA #IMPLIED>
<!ATTLIST feDropShadow
  xmlns:svg CDATA #FIXED "http://www.w3.org/Graphics/SVG/1.1/DTD/svg11.dtd"
  dy CDATA #IMPLIED>
<!ATTLIST feDropShadow
  xmlns:svg CDATA #FIXED "http://www.w3.org/Graphics/SVG/1.1/DTD/svg11.dtd"
  stdDeviation CDATA #IMPLIED>
<!ATTLIST feDropShadow
  xmlns:svg CDATA #FIXED "http://www.w3.org/Graphics/SVG/1.1/DTD/svg11.dtd"
  flood-opacity CDATA #IMPLIED>
<!ATTLIST feDropShadow
  xmlns:svg CDATA #FIXED "http://www.w3.org/Graphics/SVG/1.1/DTD/svg11.dtd"
  in CDATA #IMPLIED>
<!ATTLIST feDropShadow
  xmlns:svg CDATA #FIXED "http://www.w3.org/Graphics/SVG/1.1/DTD/svg11.dtd"
  result CDATA #IMPLIED>
<!ATTLIST feDropShadow
  xmlns:svg CDATA #FIXED "http://www.w3.org/Graphics/SVG/1.1/DTD/svg11.dtd"
  flood-color CDATA #IMPLIED>
]
>
<!-- Created with Vectornator (http://vectornator.io/) -->
<svg height="100%" stroke-miterlimit="10" style="fill-rule:nonzero;clip-rule:evenodd;stroke-linecap:round;stroke-linejoin:round;" version="1.1" viewBox="0 0 500 500" width="100%" xml:space="preserve" xmlns="http://www.w3.org/2000/svg" xmlns:vectornator="http://vectornator.io" xmlns:xlink="http://www.w3.org/1999/xlink">
<defs/>
<clipPath id="ArtboardFrame">
<rect height="500" width="500" x="0" y="0"/>
</clipPath>
<g clip-path="url(#ArtboardFrame)" id="Слой-1" vectornator:layerName="Слой 1">
<path d="M118.53 58.4444C128.187 71.4207 62.8779 178.017 57.3043 205.354C56.0292 211.609 63.2933 207.413 65.1296 204.429" fill="#ffffff" fill-rule="evenodd" opacity="1" stroke="none"/>
<path d="M64.739 127.481C55.0364 116.015 75.3821 155.797 83.4033 168.497C97.7146 191.155 116.472 211.716 143.623 217.723C188.777 227.711 349.493 201.762 363.108 145.88C423.968-103.937-74.918-113.552-55.0748 130.564C-51.3944 175.842-25.7014 223.384-5.62467 263.181C23.957 321.819 52.6607 381.874 93.9017 433.257C146.453 498.731 198.894 536.826 287.636 528.08C478.244 509.294 522.134 369.563 522.134 205.903C522.134 166.439 529.093 123.622 492.625 97.6594C453.494 69.801 391.777 83.2138 347.166 83.2138C334.861 83.2138 369.144 71.8803 378.971 64.4747C390.197 56.0154 401.182 47.1373 411.488 37.5641C432.615 17.9417 426.141-19.3773 433.011-16.0605" fill="#ffffff" fill-rule="evenodd" opacity="1" stroke="none"/>
<path d="M288.702-23.0631C362.902-51.8701 689.692 29.5689 653.834 165.034C614.701 312.87 535.905 308.512 411.167 347.115C334.387 370.876 263.394 408.127 180.966 408.127" fill="#ffffff" fill-rule="evenodd" opacity="1" stroke="none"/>
<path d="M153.454 109.903C10.2875 157.808-77.2899 432.855 62.4981 528.803C125.799 572.251 454.257 577.623 500.082 504.731C530.517 456.318 492.801 325.036 475.329 279.039" fill="#ffffff" fill-rule="evenodd" opacity="1" stroke="none"/>
<path d="M-9.6855 387.449C-36.6873 463.954 40.5432 617.394 130.557 610.762C218.1 604.311 317.772 561.884 392.506 516.908C405.501 509.087 419.753 503.424 434.449 499.72C515.361 479.33 453.125 518.193 481.149 456.389C493.167 429.884 507.065 404.459 512.153 375.389C523.188 312.351 513.275 171.228 434.222 157.888C380.369 148.8 323.821 151.04 269.293 151.04" fill="#ffffff" fill-rule="evenodd" opacity="1" stroke="none"/>
<path d="M-41.7095-22.0963C-1.30828 30.9303 71.1741 464.761 166.376 478.71" fill="#ffffff" fill-rule="evenodd" opacity="1" stroke="none"/>
<path d="M69.6503 161.799C53.1822 204.513 80.9577 289.42 94.187 327.67C157.643 511.139 351.3 516.773 514.79 483.217C546.925 476.621 589.77 472.61 611.037 443.669C656.383 381.963 651.501 232.581 635.942 160.292C618.527 79.3774 522.882 68.6078 458.842 39.6804C352.618-8.30202 20.9241-0.219222-60.7644 114.731C-142.191 229.313 1.65703 394.19 120.549 401.371" fill="#ffffff" fill-rule="evenodd" opacity="1" stroke="none"/>
<path d="M34.0668 12.2241C-147.923 12.2241-25.9958 346.824 17.7348 414.953C153.968 627.192 784.063 594.085 642.003 262.181" fill="#ffffff" fill-rule="evenodd" opacity="1" stroke="none"/>
<path d="M-6.79085 340.234C-6.79085 346.033-9.14166 357.018-6.70775 362.372" fill="#ffffff" fill-rule="evenodd" opacity="1" stroke="none"/>
</g>
<g id="Untitled" vectornator:layerName="Untitled">
<g opacity="1">
<path d="M382.419 180.216C383.141 180.367 383.688 180.928 384.109 181.503C384.612 182.231 384.995 183.11 384.882 184.013C384.831 184.628 384.326 185.171 383.721 185.276C383.562 185.295 383.417 185.214 383.281 185.148C382.644 184.822 382.158 184.207 382.016 183.503C381.771 182.4 382.018 181.25 382.419 180.216Z" fill="#5c832f" fill-rule="evenodd" opacity="1" stroke="none"/>
<path d="M393.986 181.228C394.125 181.152 394.199 181.323 394.233 181.426C394.649 182.636 394.93 183.956 394.633 185.227C394.412 186.206 393.666 187.048 392.715 187.368C391.924 187.351 391.241 186.644 391.147 185.87C391.029 184.89 391.373 183.913 391.881 183.088C392.383 182.287 393.075 181.55 393.986 181.228Z" fill="#5c832f" fill-rule="evenodd" opacity="1" stroke="none"/>
<path d="M377.471 181.88C377.964 181.932 378.379 182.235 378.76 182.529C379.604 183.225 380.222 184.17 380.598 185.191C380.847 185.921 380.986 186.732 380.748 187.482C380.537 188.192 379.87 188.729 379.145 188.83C378.251 188.547 377.477 187.874 377.111 187.006C376.74 186.138 376.713 185.168 376.822 184.244C376.979 183.443 377.112 182.622 377.471 181.88Z" fill="#5c832f" fill-rule="evenodd" opacity="1" stroke="none"/>
<path d="M387.712 182.524C387.775 182.449 387.855 182.39 387.941 182.342C388.822 183.074 389.178 184.231 389.33 185.326C389.416 186.399 389.329 187.6 388.613 188.462C388.155 189.024 387.378 189.205 386.689 189.069C386.201 188.645 385.862 188.055 385.695 187.434C385.5 186.587 385.688 185.697 386.037 184.915C386.435 184.02 387.045 183.237 387.712 182.524Z" fill="#5c832f" fill-rule="evenodd" opacity="1" stroke="none"/>
<path d="M372.449 184.38C373.561 184.319 374.593 184.908 375.378 185.649C375.911 186.179 376.406 186.845 376.432 187.626C376.47 188.182 376.138 188.73 375.664 189.005C375.051 189.073 374.426 188.864 373.932 188.504C373.446 188.149 373.131 187.616 372.899 187.071C372.549 186.222 372.438 185.293 372.449 184.38Z" fill="#5c832f" fill-rule="evenodd" opacity="1" stroke="none"/>
<path d="M395.491 185.902C395.857 185.511 396.303 185.136 396.854 185.062C397.209 186.069 397.474 187.162 397.27 188.23C397.113 189.063 396.51 189.808 395.704 190.088C395.485 190.154 395.271 190.035 395.085 189.935C394.636 189.692 394.365 189.187 394.358 188.684C394.319 187.648 394.813 186.66 395.491 185.902Z" fill="#5c832f" fill-rule="evenodd" opacity="1" stroke="none"/>
<path d="M368.549 185.153C369.178 185.119 369.733 185.505 370.203 185.881C371.006 186.576 371.672 187.523 371.785 188.603C371.868 189.241 371.522 189.913 370.943 190.201C370.611 190.408 370.23 190.18 369.913 190.051C369.073 189.659 368.59 188.773 368.441 187.89C368.272 186.982 368.374 186.051 368.549 185.153Z" fill="#5c832f" fill-rule="evenodd" opacity="1" stroke="none"/>
<path d="M381.734 186.409C381.948 186.293 382.194 186.421 382.412 186.471C383.293 186.792 384.009 187.453 384.579 188.181C385.135 188.903 385.547 189.785 385.531 190.711C385.539 191.425 385.05 192.093 384.398 192.36C384.134 192.455 383.866 192.317 383.621 192.233C382.763 191.919 382.103 191.174 381.82 190.314C381.376 189.056 381.503 187.696 381.734 186.409Z" fill="#5c832f" fill-rule="evenodd" opacity="1" stroke="none"/>
<path d="M390.655 188.387C390.855 188.23 391.039 188.027 391.297 187.967C391.84 189.598 392.17 191.338 391.956 193.059C391.828 193.796 391.606 194.589 391.004 195.084C390.495 195.522 389.766 195.548 389.138 195.419C388.575 195.292 387.966 195.048 387.685 194.507C387.367 193.894 387.444 193.154 387.644 192.516C388.208 190.877 389.341 189.492 390.655 188.387Z" fill="#5c832f" fill-rule="evenodd" opacity="1" stroke="none"/>
<path d="M365.823 188.948C366.565 189.058 367.115 189.655 367.535 190.232C368.042 190.958 368.413 191.844 368.292 192.745C368.231 193.322 367.779 193.824 367.222 193.972C367.002 194.04 366.796 193.899 366.608 193.804C365.949 193.445 365.496 192.763 365.384 192.026C365.226 190.983 365.441 189.918 365.823 188.948Z" fill="#5c832f" fill-rule="evenodd" opacity="1" stroke="none"/>
<path d="M397.845 190.807C398.28 190.133 398.871 189.463 399.684 189.271C399.94 189.814 400.075 190.407 400.167 190.998C400.228 191.734 400.256 192.528 399.869 193.187C399.584 193.715 399.103 194.143 398.528 194.324C397.919 194.327 397.392 193.806 397.268 193.225C397.092 192.381 397.41 191.521 397.845 190.807Z" fill="#5c832f" fill-rule="evenodd" opacity="1" stroke="none"/>
<path d="M375.965 190.077C376.08 190.138 376.183 190.217 376.271 190.313C377.205 191.3 378.049 192.406 378.561 193.676C378.831 194.375 379.032 195.168 378.772 195.901C378.586 196.475 378.038 196.846 377.479 197.004C376.911 197.181 376.231 197.231 375.729 196.856C375.155 196.404 374.941 195.646 374.882 194.945C374.758 193.263 375.17 191.56 375.965 190.077Z" fill="#5c832f" fill-rule="evenodd" opacity="1" stroke="none"/>
<path d="M371.301 191.061C371.526 191.132 371.653 191.349 371.804 191.515C372.368 192.215 372.597 193.11 372.739 193.98C372.828 195.001 372.773 196.107 372.173 196.981C371.747 197.66 370.837 197.97 370.081 197.75C369.339 197.108 368.952 196.101 369.037 195.127C369.217 193.534 370.192 192.163 371.301 191.061Z" fill="#5c832f" fill-rule="evenodd" opacity="1" stroke="none"/>
<path d="M394.148 191.429C394.179 191.433 394.243 191.443 394.276 191.447C395.284 192.453 396.145 193.68 396.448 195.092C396.648 196.019 396.389 197.019 395.788 197.749C395.642 197.904 395.51 198.128 395.274 198.137C394.712 198.218 394.103 198.084 393.681 197.693C393.135 197.197 392.896 196.455 392.801 195.743C392.674 194.529 392.867 193.253 393.494 192.192C393.67 191.907 393.884 191.64 394.148 191.429Z" fill="#5c832f" fill-rule="evenodd" opacity="1" stroke="none"/>
<path d="M379.64 194.51C379.702 193.456 380.059 192.421 380.633 191.537C381.355 191.805 381.835 192.47 382.18 193.128C382.613 194.011 382.883 195.052 382.583 196.019C382.415 196.609 381.849 197.024 381.25 197.089C381.005 197.125 380.814 196.941 380.632 196.806C379.937 196.275 379.584 195.374 379.64 194.51Z" fill="#5c832f" fill-rule="evenodd" opacity="1" stroke="none"/>
<path d="M360.851 196.322C360.662 195.159 360.875 193.964 361.32 192.882C362.077 193.039 362.656 193.62 363.104 194.218C363.645 194.994 364.07 195.925 363.968 196.895C363.931 197.526 363.461 198.091 362.858 198.269C362.605 198.383 362.356 198.21 362.137 198.099C361.468 197.736 361.02 197.051 360.851 196.322Z" fill="#5c832f" fill-rule="evenodd" opacity="1" stroke="none"/>
<path d="M404.358 193.614C404.675 193.482 405.049 193.334 405.387 193.462C405.466 194.564 405.494 195.719 405.019 196.745C404.676 197.63 403.812 198.271 402.871 198.367C402.62 198.377 402.43 198.178 402.255 198.027C401.756 197.549 401.716 196.765 401.951 196.149C402.368 195.027 403.283 194.118 404.358 193.614Z" fill="#5c832f" fill-rule="evenodd" opacity="1" stroke="none"/>
<path d="M384.278 194.276C384.381 194.236 384.476 194.335 384.569 194.368C385.847 195.046 387.078 195.928 387.834 197.188C388.494 198.226 388.53 199.65 387.885 200.699C387.272 201.071 386.451 201.151 385.809 200.801C385.166 200.461 384.714 199.852 384.395 199.213C383.833 198.108 383.641 196.832 383.785 195.605C383.872 195.14 384.001 194.666 384.278 194.276Z" fill="#5c832f" fill-rule="evenodd" opacity="1" stroke="none"/>
<path d="M365.161 195.076C365.438 195.02 365.71 195.142 365.965 195.235C366.968 195.654 367.752 196.475 368.327 197.379C368.741 198.044 369.012 198.831 368.929 199.624C368.855 200.289 368.354 200.869 367.732 201.095C367.298 201.105 366.888 200.894 366.518 200.684C365.788 200.237 365.311 199.466 365.117 198.644C364.801 197.475 364.951 196.248 365.161 195.076Z" fill="#5c832f" fill-rule="evenodd" opacity="1" stroke="none"/>
<path d="M399.127 195.797C399.509 195.582 399.926 195.391 400.373 195.395C400.617 196.719 400.76 198.128 400.281 199.417C399.937 200.474 398.962 201.315 397.856 201.447C397.21 201.251 396.683 200.659 396.606 199.982C396.507 199.236 396.769 198.498 397.13 197.858C397.609 197.02 398.292 196.287 399.127 195.797Z" fill="#5c832f" fill-rule="evenodd" opacity="1" stroke="none"/>
<path d="M371.45 200.4C371.994 198.921 372.882 197.565 374.026 196.48C374.206 196.658 374.287 196.903 374.396 197.126C375.078 198.651 375.589 200.311 375.476 202C375.399 202.658 375.187 203.36 374.638 203.777C374.045 204.246 373.231 204.243 372.524 204.107C371.949 203.993 371.408 203.591 371.242 203.014C370.961 202.153 371.162 201.23 371.45 200.4Z" fill="#5c832f" fill-rule="evenodd" opacity="1" stroke="none"/>
<path d="M390.483 198.178C390.59 197.787 390.659 197.376 390.862 197.019C392.059 197.781 393.014 198.88 393.77 200.07C394.238 200.875 394.684 201.76 394.647 202.717C394.665 203.391 394.226 204.063 393.583 204.283C392.906 204.548 392.107 204.676 391.433 204.343C390.752 204.001 390.412 203.257 390.245 202.551C389.933 201.102 390.148 199.602 390.483 198.178Z" fill="#5c832f" fill-rule="evenodd" opacity="1" stroke="none"/>
<path d="M357.432 197.234C358.532 197.18 359.567 197.737 360.342 198.482C360.874 198.998 361.345 199.653 361.404 200.414C361.462 200.976 361.145 201.527 360.684 201.834C360.077 201.938 359.445 201.719 358.946 201.373C358.274 200.903 357.908 200.125 357.686 199.359C357.474 198.673 357.415 197.949 357.432 197.234Z" fill="#5c832f" fill-rule="evenodd" opacity="1" stroke="none"/>
<path d="M406.926 197.422C407.14 197.342 407.375 197.243 407.605 197.33C407.765 198.474 407.92 199.694 407.475 200.797C407.218 201.505 406.632 202.076 405.928 202.336C405.743 202.402 405.547 202.47 405.349 202.435C404.811 202.23 404.389 201.71 404.348 201.129C404.294 200.421 404.568 199.732 404.948 199.148C405.438 198.413 406.098 197.757 406.926 197.422Z" fill="#5c832f" fill-rule="evenodd" opacity="1" stroke="none"/>
<path d="M378.706 197.587C379.035 197.646 379.308 197.855 379.59 198.022C380.488 198.598 381.353 199.35 381.711 200.387C381.91 201.058 381.86 201.822 381.503 202.431C381.339 202.601 381.093 202.636 380.875 202.689C380.27 202.822 379.657 202.498 379.278 202.041C378.564 201.175 378.29 200.019 378.331 198.916C378.343 198.45 378.492 197.998 378.706 197.587Z" fill="#5c832f" fill-rule="evenodd" opacity="1" stroke="none"/>
<path d="M362.647 200.056C363.422 200.065 364.082 200.568 364.613 201.087C365.267 201.766 365.823 202.622 365.884 203.586C365.953 204.293 365.467 205.065 364.755 205.208C363.849 205.078 363.068 204.412 362.749 203.561C362.322 202.446 362.409 201.206 362.647 200.056Z" fill="#5c832f" fill-rule="evenodd" opacity="1" stroke="none"/>
<path d="M402.249 200.516C402.447 200.446 402.659 200.363 402.873 200.403C403.113 201.501 403.202 202.674 402.844 203.756C402.582 204.579 401.902 205.261 401.068 205.496C400.939 205.521 400.801 205.579 400.672 205.534C400.197 205.363 399.808 204.949 399.704 204.449C399.536 203.713 399.821 202.962 400.203 202.34C400.697 201.561 401.388 200.874 402.249 200.516Z" fill="#5c832f" fill-rule="evenodd" opacity="1" stroke="none"/>
<path d="M376.943 203.163C377.335 202.901 377.734 202.635 378.173 202.46C378.207 202.462 378.273 202.465 378.305 202.467C378.852 203.466 378.827 204.67 378.57 205.75C378.344 206.679 377.898 207.612 377.107 208.188C376.544 208.61 375.743 208.617 375.129 208.305C374.957 208.233 374.906 208.038 374.835 207.885C374.472 207.045 374.528 206.046 374.961 205.243C375.415 204.382 376.153 203.712 376.943 203.163Z" fill="#5c832f" fill-rule="evenodd" opacity="1" stroke="none"/>
<path d="M382.668 202.627C382.689 202.593 382.728 202.524 382.747 202.491C383.955 203.035 385.078 203.797 386.018 204.736C386.63 205.39 387.258 206.179 387.244 207.122C387.246 207.784 386.782 208.34 386.243 208.671C385.789 208.983 385.2 209.162 384.661 208.994C383.992 208.744 383.556 208.12 383.265 207.496C382.597 205.975 382.462 204.264 382.668 202.627Z" fill="#5c832f" fill-rule="evenodd" opacity="1" stroke="none"/>
<path d="M367.678 202.965C368.708 203.372 369.619 204.051 370.411 204.819C371.103 205.51 371.655 206.396 371.75 207.386C371.812 208.07 371.659 208.775 371.33 209.376C370.751 209.785 369.934 209.857 369.291 209.551C368.631 209.207 368.146 208.6 367.815 207.944C367.286 206.853 367.053 205.614 367.188 204.406C367.256 203.9 367.416 203.406 367.678 202.965Z" fill="#5c832f" fill-rule="evenodd" opacity="1" stroke="none"/>
<path d="M409.397 203.249C410.191 203.006 411.028 203.04 411.847 203.097C411.876 203.848 411.438 204.528 410.958 205.071C410.402 205.656 409.695 206.186 408.866 206.258C408.308 206.321 407.726 206.014 407.479 205.508C407.41 205.286 407.499 205.055 407.558 204.841C407.817 204.019 408.581 203.447 409.397 203.249Z" fill="#5c832f" fill-rule="evenodd" opacity="1" stroke="none"/>
<path d="M396.25 204.213C396.729 203.889 397.218 203.558 397.754 203.337C397.787 203.341 397.854 203.346 397.887 203.349C398.392 204.252 398.466 205.329 398.312 206.336C398.129 207.53 397.681 208.754 396.746 209.563C396.077 210.168 394.989 210.25 394.239 209.749C393.707 208.91 393.641 207.808 393.976 206.881C394.402 205.762 395.296 204.898 396.25 204.213Z" fill="#5c832f" fill-rule="evenodd" opacity="1" stroke="none"/>
<path d="M359.228 203.424C359.5 203.497 359.739 203.652 359.989 203.776C361.041 204.351 362.022 205.074 362.828 205.965C363.326 206.535 363.77 207.22 363.803 208.001C363.825 208.627 363.432 209.193 362.927 209.529C362.445 209.879 361.821 210.147 361.224 209.945C360.501 209.686 360.057 208.991 359.763 208.319C359.108 206.781 359.029 205.065 359.228 203.424Z" fill="#5c832f" fill-rule="evenodd" opacity="1" stroke="none"/>
<path d="M405.525 204.134C405.773 204.014 406.001 203.829 406.28 203.788C406.488 205.042 406.423 206.343 406.135 207.581C405.915 208.405 405.609 209.252 404.987 209.864C404.612 210.231 404.066 210.463 403.54 210.319C402.764 210.107 402 209.567 401.771 208.761C401.603 208.004 401.968 207.261 402.413 206.672C403.239 205.601 404.35 204.784 405.525 204.134Z" fill="#5c832f" fill-rule="evenodd" opacity="1" stroke="none"/>
<path d="M388.403 204.559C389.274 204.561 390.056 205.064 390.679 205.635C391.393 206.311 392.011 207.176 392.115 208.178C392.214 208.896 391.782 209.659 391.102 209.917C390.887 209.959 390.674 209.883 390.473 209.824C389.731 209.594 389.092 209.042 388.771 208.333C388.219 207.16 388.217 205.817 388.403 204.559Z" fill="#5c832f" fill-rule="evenodd" opacity="1" stroke="none"/>
<path d="M380.135 206.181C380.402 206.005 380.641 205.744 380.972 205.698C381.532 206.554 381.593 207.637 381.402 208.616C381.237 209.358 380.953 210.131 380.341 210.62C379.907 210.992 379.274 211.034 378.752 210.848C378.627 210.813 378.551 210.7 378.487 210.594C378.105 209.936 378.035 209.11 378.304 208.397C378.652 207.48 379.366 206.764 380.135 206.181Z" fill="#5c832f" fill-rule="evenodd" opacity="1" stroke="none"/>
<path d="M353.662 206.803C354.728 206.502 355.863 206.786 356.812 207.305C357.396 207.635 357.956 208.079 358.239 208.705C358.523 209.269 358.4 210.022 357.928 210.448C357.47 210.627 356.955 210.611 356.478 210.519C355.806 210.368 355.242 209.912 354.817 209.385C354.302 208.729 353.944 207.962 353.689 207.172C353.646 207.052 353.641 206.927 353.662 206.803Z" fill="#5c832f" fill-rule="evenodd" opacity="1" stroke="none"/>
<path d="M408.165 208.014C408.898 207.46 409.79 207.109 410.708 207.036C411.108 207.023 411.533 207.022 411.901 207.202C411.859 207.614 411.666 207.988 411.519 208.368C411.178 209.143 410.709 209.889 410.024 210.403C409.343 210.927 408.388 211.075 407.581 210.787C407.185 210.372 407.04 209.727 407.23 209.184C407.415 208.712 407.768 208.321 408.165 208.014Z" fill="#5c832f" fill-rule="evenodd" opacity="1" stroke="none"/>
<path d="M365.287 209.058C365.907 208.999 366.491 209.32 366.995 209.65C367.92 210.3 368.691 211.238 368.969 212.353C369.099 212.923 369.007 213.599 368.561 214.015C368.353 214.23 368.08 214.464 367.756 214.394C366.858 214.263 366.051 213.645 365.673 212.822C365.107 211.658 365.141 210.313 365.287 209.058Z" fill="#5c832f" fill-rule="evenodd" opacity="1" stroke="none"/>
<path d="M373.621 209.276C373.717 209.167 373.849 209.249 373.906 209.351C374.55 210.217 374.632 211.359 374.504 212.396C374.397 213.031 374.181 213.677 373.722 214.145C373.317 214.591 372.635 214.74 372.076 214.532C371.887 214.466 371.802 214.267 371.703 214.112C371.311 213.438 371.242 212.587 371.536 211.864C371.933 210.805 372.733 209.951 373.621 209.276Z" fill="#5c832f" fill-rule="evenodd" opacity="1" stroke="none"/>
<path d="M399.631 209.462C399.818 209.448 400.121 209.269 400.244 209.469C400.406 210.586 400.386 211.754 400.012 212.83C399.658 213.861 398.694 214.695 397.59 214.764C397.086 214.602 396.697 214.14 396.552 213.637C396.407 212.886 396.676 212.118 397.087 211.494C397.695 210.579 398.565 209.786 399.631 209.462Z" fill="#5c832f" fill-rule="evenodd" opacity="1" stroke="none"/>
<path d="M386.307 210.583C386.971 210.487 387.672 210.484 388.301 210.746C388.822 210.952 389.187 211.491 389.189 212.053C389.228 212.713 389.083 213.45 388.551 213.895C387.97 214.371 387.165 214.357 386.46 214.26C385.106 214.01 383.851 213.388 382.717 212.627C382.594 212.511 382.338 212.449 382.338 212.259C383.503 211.4 384.876 210.81 386.307 210.583Z" fill="#5c832f" fill-rule="evenodd" opacity="1" stroke="none"/>
<path d="M360.464 211.466C361.254 211.281 362.109 211.195 362.89 211.462C363.416 211.636 363.856 212.115 363.902 212.679C363.942 213.219 363.905 213.796 363.617 214.27C363.33 214.769 362.756 215.04 362.197 215.081C361.345 215.162 360.516 214.901 359.725 214.617C358.797 214.257 357.915 213.766 357.126 213.159C357.109 213.13 357.076 213.074 357.06 213.046C358.062 212.276 359.244 211.765 360.464 211.466Z" fill="#5c832f" fill-rule="evenodd" opacity="1" stroke="none"/>
<path d="M402.387 211.927C403.143 211.528 404.045 211.611 404.856 211.765C406.145 212.03 407.38 212.573 408.434 213.363C408.452 213.386 408.486 213.431 408.504 213.455C407.304 214.328 405.96 215.036 404.503 215.356C403.777 215.475 402.951 215.522 402.324 215.07C401.748 214.648 401.58 213.881 401.612 213.205C401.615 212.682 401.909 212.159 402.387 211.927Z" fill="#5c832f" fill-rule="evenodd" opacity="1" stroke="none"/>
<path d="M375.967 211.873C376.946 212.062 377.895 212.384 378.87 212.6C379.044 212.644 379.364 212.678 379.256 212.942C378.69 215.27 378.174 217.619 377.945 220.009C377.939 220.583 377.849 221.162 377.948 221.731C377.974 221.953 378.172 222.085 378.304 222.245C379.548 223.61 380.725 225.052 381.65 226.656C381.709 226.738 381.75 226.854 381.859 226.881C382.066 224.831 382.181 222.764 382.037 220.705C382.001 219.626 381.798 218.562 381.625 217.498C381.607 217.401 381.606 217.304 381.621 217.207C382.506 216.934 383.406 216.716 384.288 216.437C384.468 216.392 384.647 216.321 384.835 216.328C384.993 216.434 384.988 216.656 385.03 216.824C385.646 219.978 385.723 223.226 385.378 226.417C385.382 226.572 385.276 226.764 385.389 226.895C387.175 224.249 389.03 221.596 390.168 218.588C390.965 216.539 391.37 214.344 391.411 212.147C392.555 212.118 393.702 212.119 394.848 212.134C394.912 213.989 394.584 215.832 394.141 217.627C394.093 217.837 394.012 218.042 394.014 218.261C394.124 218.242 394.232 218.214 394.338 218.174C395.059 217.872 395.811 217.642 396.578 217.493C396.881 217.437 397.189 217.381 397.498 217.417C397.502 218.564 397.706 219.703 397.643 220.851C397.091 220.861 396.561 221.035 396.05 221.225C394.42 221.818 392.953 222.818 391.741 224.052C390.865 224.908 390.209 225.95 389.539 226.968C388.605 228.392 387.586 229.771 386.82 231.298C386.524 231.904 386.232 232.546 386.245 233.236C386.246 244.732 386.24 256.228 386.248 267.725C386.198 269.951 386.877 272.146 387.957 274.077C389.005 275.917 390.397 277.566 392.058 278.882C392.128 278.938 392.177 279.01 392.204 279.1C385.956 279.109 379.708 279.104 373.46 279.102C373.686 278.842 374.035 278.718 374.311 278.515C377.265 276.667 379.235 273.455 379.79 270.04C380.069 268.608 379.972 267.144 379.981 265.697C379.984 260.021 379.975 254.345 379.989 248.671C379.981 248.19 380.057 247.661 379.774 247.239C379.431 246.8 378.932 246.512 378.433 246.285C377.176 245.727 375.814 245.468 374.463 245.257C371.04 244.801 367.572 244.823 364.13 245.001C363.491 245.041 362.852 245.112 362.212 245.121C362.11 243.982 361.923 242.845 361.915 241.699C362.768 241.613 363.622 241.549 364.479 241.526C364.514 240.864 364.518 240.201 364.471 239.541C364.384 239.54 364.295 239.545 364.211 239.52C363.037 239.17 361.983 238.401 361.34 237.353C360.694 236.334 360.404 235.126 360.338 233.931C359.475 233.924 358.626 234.147 357.764 234.142C358.062 233.773 358.522 233.57 358.901 233.29C359.071 233.147 359.33 233.071 359.443 232.882C358.944 232.006 358.318 231.207 357.786 230.351C358.509 230.781 359.167 231.31 359.865 231.778C360.045 231.894 360.212 232.039 360.421 232.1C360.885 230.87 362.026 230.002 363.255 229.62C364.134 229.362 365.078 229.266 365.981 229.443C366.78 229.629 367.381 230.28 367.674 231.025C368.112 232.007 368.214 233.093 368.347 234.148C368.46 234.764 368.457 235.428 368.808 235.97C368.918 236.151 369.138 236.206 369.336 236.217C370.721 236.283 372.082 235.977 373.452 235.825C373.929 235.745 374.412 235.689 374.896 235.723C374.726 236.033 374.353 236.125 374.057 236.276C372.66 236.911 371.62 238.079 370.362 238.925C369.461 239.529 368.39 239.875 367.306 239.911C367.293 240.413 367.265 240.918 367.319 241.419C370.745 241.416 374.207 241.509 377.549 242.334C378.153 242.5 378.755 242.676 379.338 242.91C379.554 242.991 379.767 243.095 379.998 243.115C379.958 239.592 379.997 236.071 379.978 232.549C379.896 231.782 379.82 230.998 379.536 230.272C378.952 228.671 377.978 227.249 376.907 225.938C374.48 223.009 371.545 220.541 368.459 218.333C368.32 218.257 368.448 218.101 368.495 218.008C369.054 217.184 369.613 216.36 370.179 215.54C370.226 215.443 370.339 215.402 370.424 215.48C371.866 216.443 373.187 217.573 374.551 218.637C374.698 218.454 374.648 218.192 374.7 217.974C374.994 215.918 375.407 213.874 375.967 211.873ZM361.841 232.012C362.052 232.493 362.412 232.922 362.873 233.182C363.322 233.44 363.909 233.371 364.316 233.062C364.628 232.826 364.953 232.556 365.102 232.185C364.52 232.405 363.998 232.865 363.34 232.827C362.752 232.758 362.313 232.325 361.841 232.012ZM364.591 239.412L364.588 239.493C364.908 239.496 365.228 239.504 365.548 239.498L365.548 239.406C365.229 239.398 364.909 239.405 364.591 239.412ZM366.465 239.465C366.64 239.524 366.856 239.543 367.028 239.468C366.932 239.338 366.576 239.365 366.465 239.465ZM365.55 239.829C365.565 240.383 365.53 240.939 365.571 241.494C365.788 241.469 366.008 241.463 366.227 241.486C366.224 240.964 366.285 240.427 366.194 239.914C366.003 239.808 365.762 239.837 365.55 239.829Z" fill="#5c832f" fill-rule="evenodd" opacity="1" stroke="none"/>
<path d="M407.57 215.457C408.238 215.313 408.934 215.419 409.587 215.585C410.484 215.845 411.365 216.242 412.103 216.82C411.766 217.14 411.361 217.375 410.956 217.598C410.14 218.032 409.263 218.394 408.335 218.468C407.809 218.493 407.199 218.386 406.866 217.936C406.536 217.529 406.483 216.972 406.548 216.47C406.586 215.937 407.08 215.563 407.57 215.457Z" fill="#5c832f" fill-rule="evenodd" opacity="1" stroke="none"/>
<path d="M357.73 215.722C358.15 215.626 358.616 215.596 359.017 215.781C359.42 215.971 359.632 216.407 359.706 216.826C359.784 217.273 359.769 217.788 359.459 218.149C359.104 218.572 358.538 218.738 358.011 218.802C356.818 218.91 355.622 218.65 354.504 218.25C354.44 218.205 354.264 218.195 354.299 218.083C355.19 217 356.365 216.1 357.73 215.722Z" fill="#5c832f" fill-rule="evenodd" opacity="1" stroke="none"/>
<path d="M362.477 217.012C363.212 216.532 364.036 216.115 364.927 216.052C365.498 215.997 366.127 216.238 366.41 216.758C366.729 217.395 366.852 218.195 366.513 218.849C366.124 219.501 365.34 219.758 364.627 219.851C363.845 219.93 363.05 219.914 362.279 219.759C361.565 219.637 360.853 219.481 360.184 219.194C360.794 218.326 361.597 217.603 362.477 217.012Z" fill="#5c832f" fill-rule="evenodd" opacity="1" stroke="none"/>
<path d="M399.525 216.661C400.087 216.268 400.842 216.366 401.462 216.558C402.897 217.053 404.121 218.036 405.092 219.184C405.191 219.308 405.338 219.429 405.313 219.606C404.342 219.889 403.357 220.153 402.344 220.227C401.47 220.262 400.543 220.27 399.747 219.855C399.238 219.606 398.835 219.091 398.826 218.51C398.793 217.844 398.962 217.081 399.525 216.661Z" fill="#5c832f" fill-rule="evenodd" opacity="1" stroke="none"/>
<path d="M367.415 220.195C367.964 219.995 368.634 220.142 369.017 220.593C369.373 221.022 369.698 221.538 369.682 222.118C369.707 222.736 369.275 223.26 368.798 223.602C368.158 224.073 367.392 224.333 366.63 224.532C365.725 224.748 364.795 224.885 363.864 224.843C364.168 223.605 364.838 222.479 365.648 221.505C366.132 220.95 366.711 220.446 367.415 220.195Z" fill="#5c832f" fill-rule="evenodd" opacity="1" stroke="none"/>
<path d="M361.545 220.946C361.983 220.801 362.543 220.81 362.865 221.187C363.169 221.576 363.311 222.107 363.195 222.591C363.051 223.089 362.558 223.367 362.09 223.502C360.999 223.789 359.858 223.635 358.769 223.414C358.845 223.107 359.07 222.864 359.259 222.62C359.889 221.912 360.624 221.239 361.545 220.946Z" fill="#5c832f" fill-rule="evenodd" opacity="1" stroke="none"/>
<path d="M399.031 221.543C399.544 221.188 400.219 221.299 400.773 221.488C402.055 221.997 403.103 222.966 403.942 224.042C404.163 224.358 404.425 224.655 404.558 225.02C403.507 225.333 402.389 225.384 401.298 225.337C400.401 225.245 399.426 225.112 398.728 224.489C398.252 224.08 398.113 223.396 398.269 222.805C398.404 222.331 398.599 221.824 399.031 221.543Z" fill="#5c832f" fill-rule="evenodd" opacity="1" stroke="none"/>
<path d="M405.592 222.468C405.814 222.156 406.201 222.018 406.57 221.994C407.586 221.909 408.57 222.291 409.456 222.753C409.678 222.897 409.961 223.001 410.091 223.244C409.376 223.724 408.623 224.172 407.788 224.404C407.27 224.569 406.688 224.652 406.163 224.466C405.732 224.318 405.472 223.883 405.423 223.447C405.392 223.118 405.37 222.74 405.592 222.468Z" fill="#5c832f" fill-rule="evenodd" opacity="1" stroke="none"/>
<path d="M353.024 222.652C353.398 222.608 353.774 222.547 354.153 222.564C354.127 225.06 354.148 227.558 354.144 230.053C354.14 230.458 353.926 230.843 353.603 231.082C352.791 231.706 351.494 231.637 350.799 230.864C350.349 230.381 350.427 229.528 350.944 229.124C351.528 228.595 352.384 228.57 353.113 228.749C353.153 227.417 353.15 226.083 353.112 224.751C351.387 224.914 349.67 225.155 347.948 225.339C347.901 227.205 347.965 229.076 347.923 230.944C347.878 231.506 347.396 231.929 346.897 232.121C346.136 232.389 345.191 232.269 344.621 231.664C344.232 231.259 344.16 230.558 344.524 230.114C344.971 229.518 345.787 229.316 346.495 229.435C346.639 229.445 346.791 229.52 346.931 229.458C346.912 227.421 346.923 225.383 346.947 223.346C348.972 223.106 350.998 222.875 353.024 222.652Z" fill="#5c832f" fill-rule="evenodd" opacity="1" stroke="none"/>
<path d="M370.738 224.128C371.08 223.624 371.548 223.11 372.187 223.033C372.782 222.954 373.29 223.392 373.632 223.83C374.005 224.305 374.029 224.997 373.691 225.499C373.121 226.386 372.165 226.927 371.231 227.361C370.733 227.564 370.235 227.794 369.701 227.882L369.622 227.855C369.679 226.55 370.035 225.237 370.738 224.128Z" fill="#5c832f" fill-rule="evenodd" opacity="1" stroke="none"/>
<path d="M392.598 224.645C392.82 224.199 393.26 223.833 393.772 223.814C394.556 223.753 395.272 224.164 395.894 224.595C396.839 225.29 397.617 226.2 398.229 227.198C398.34 227.397 398.472 227.591 398.528 227.816C397.029 228.03 395.464 228.091 394.001 227.647C393.392 227.449 392.758 227.123 392.444 226.536C392.13 225.936 392.3 225.215 392.598 224.645Z" fill="#5c832f" fill-rule="evenodd" opacity="1" stroke="none"/>
<path d="M354.302 238.862C354.473 238.679 354.755 238.713 354.983 238.66C356.262 238.555 357.581 238.598 358.806 239.011C359.45 239.236 360.108 239.552 360.509 240.126C360.862 240.632 360.789 241.331 360.475 241.838C360.188 242.359 359.727 242.848 359.113 242.941C358.388 243.043 357.69 242.697 357.116 242.285C355.911 241.398 355.029 240.152 354.302 238.862Z" fill="#5c832f" fill-rule="evenodd" opacity="1" stroke="none"/>
<path d="M352.587 243.838C353.594 243.229 354.741 242.747 355.939 242.788C356.417 242.808 356.968 242.975 357.184 243.444C357.354 243.855 357.269 244.327 357.107 244.726C356.89 245.199 356.344 245.425 355.845 245.377C354.836 245.321 353.914 244.826 353.079 244.29C352.901 244.158 352.678 244.052 352.587 243.838Z" fill="#5c832f" fill-rule="evenodd" opacity="1" stroke="none"/>
<path d="M358.312 245.223C358.837 244.877 359.482 244.571 360.125 244.736C360.562 244.842 360.838 245.245 360.997 245.639C361.215 246.123 361.225 246.746 360.874 247.172C360.536 247.582 360.026 247.798 359.53 247.945C358.362 248.262 357.132 248.213 355.945 248.049C356.461 246.92 357.295 245.935 358.312 245.223Z" fill="#5c832f" fill-rule="evenodd" opacity="1" stroke="none"/>
<path d="M361.896 247.205C362.006 246.615 362.504 246.147 363.095 246.059C363.707 245.972 364.402 245.997 364.903 246.405C365.454 246.865 365.585 247.635 365.566 248.316C365.497 249.859 364.91 251.332 364.131 252.647C363.465 252.028 362.967 251.239 362.553 250.433C362.084 249.435 361.672 248.321 361.896 247.205Z" fill="#5c832f" fill-rule="evenodd" opacity="1" stroke="none"/>
<path d="M359.042 249.129C359.314 248.691 359.791 248.271 360.346 248.379C360.984 248.529 361.604 249.119 361.524 249.819C361.437 250.44 360.975 250.921 360.515 251.308C359.857 251.839 359.108 252.257 358.309 252.534C358.212 251.362 358.432 250.142 359.042 249.129Z" fill="#5c832f" fill-rule="evenodd" opacity="1" stroke="none"/>
</g>
<g opacity="1">
<path d="M97.5393 231.595L97.5393 231.595C97.6316 228.983 98.2656 226.668 99.4415 224.649C100.617 222.624 102.38 221.202 104.732 220.384L104.732 220.384C106.575 219.748 108.838 219.66 111.524 220.12L111.524 220.12C112.1 220.245 112.615 220.542 113.068 221.009C113.528 221.475 113.621 222.022 113.347 222.648L113.347 222.648C113.198 223.006 112.993 223.277 112.731 223.459C112.47 223.649 112.096 223.817 111.608 223.963C111.121 224.11 110.788 224.223 110.609 224.303L110.609 224.303C110.013 224.556 109.128 224.621 107.955 224.5C106.781 224.373 105.971 224.414 105.524 224.623L105.524 224.623C103.828 225.431 102.765 226.76 102.335 228.61C101.912 230.453 102.097 232.287 102.892 234.112C103.687 235.937 105.027 237.194 106.912 237.881C108.804 238.568 110.66 238.5 112.482 237.679L112.482 237.679C112.751 237.556 113.101 237.32 113.532 236.972C113.965 236.63 114.342 236.341 114.665 236.105C114.981 235.862 115.358 235.657 115.796 235.489C116.226 235.315 116.581 235.337 116.859 235.555L116.859 235.555C117.768 236.147 118.357 236.757 118.627 237.385C118.903 238.012 118.716 238.676 118.068 239.377L118.068 239.377C115.304 241.896 111.477 242.687 106.587 241.749L106.587 241.749C104.18 241.259 102.371 240.623 101.16 239.843L101.16 239.843C98.6654 238.175 97.4586 235.426 97.5393 231.595Z" fill="#5c832f" fill-rule="evenodd" opacity="1" stroke="none"/>
<path d="M130.703 241.054L130.703 241.054C130.434 240.929 130.145 240.639 129.834 240.183C129.517 239.734 129.249 239.522 129.03 239.546L129.03 239.546C128.593 239.533 127.927 239.511 127.032 239.481C126.136 239.451 125.428 239.41 124.906 239.359C124.384 239.309 123.77 239.211 123.064 239.066C122.357 238.922 121.734 238.677 121.194 238.334C120.66 237.983 120.188 237.531 119.779 236.978L119.779 236.978C119.099 236.147 118.747 235.065 118.723 233.733C118.707 232.407 118.963 231.307 119.492 230.431L119.492 230.431C120.103 229.392 120.859 228.536 121.758 227.862C122.651 227.188 123.528 226.711 124.389 226.43C125.25 226.149 126.068 225.956 126.841 225.852C127.615 225.755 128.254 225.709 128.757 225.715L128.757 225.715L129.498 225.684C129.716 225.346 129.784 224.792 129.7 224.023C129.616 223.248 129.337 222.839 128.863 222.796L128.863 222.796C128.376 222.628 127.744 222.649 126.969 222.861C126.193 223.066 125.645 223.232 125.324 223.361C125.009 223.489 124.492 223.76 123.772 224.173C123.052 224.58 122.496 224.865 122.104 225.028L122.104 225.028C121.326 225.394 120.688 225.017 120.191 223.898C119.694 222.778 119.585 222.045 119.863 221.7L119.863 221.7C120.955 220.77 122.282 220.016 123.842 219.438C125.409 218.859 127.012 218.678 128.651 218.896C130.284 219.108 131.499 219.861 132.296 221.156L132.296 221.156C132.831 222.004 133.181 222.975 133.347 224.07C133.512 225.165 133.539 226.155 133.427 227.039C133.323 227.928 133.204 229.001 133.072 230.256C132.946 231.503 132.897 232.565 132.925 233.44L132.925 233.44C133.102 237.364 132.911 239.779 132.352 240.684L132.352 240.684C131.946 241.265 131.396 241.388 130.703 241.054ZM129.258 235.528L129.258 235.528C129.304 235.087 129.385 234.532 129.5 233.862C129.615 233.192 129.704 232.65 129.766 232.234C129.828 231.818 129.822 231.326 129.747 230.757C129.671 230.182 129.476 229.616 129.16 229.061L129.16 229.061C128.69 229.299 127.96 229.556 126.971 229.831C125.982 230.113 125.164 230.359 124.516 230.57C123.862 230.782 123.286 231.19 122.788 231.794C122.289 232.391 122.074 233.159 122.143 234.097L122.143 234.097C122.209 234.713 122.836 235.208 124.024 235.582C125.204 235.951 126.309 236.096 127.34 236.017C128.364 235.94 129.004 235.777 129.258 235.528Z" fill="#5c832f" fill-rule="evenodd" opacity="1" stroke="none"/>
<path d="M136.251 219.5L136.251 219.5C137.208 218.491 138.26 217.656 139.409 216.995C140.559 216.341 141.81 215.886 143.164 215.632C144.511 215.372 145.822 215.502 147.099 216.02L147.099 216.02C147.882 216.311 148.244 216.744 148.185 217.321L148.185 217.321C147.726 218.591 147.422 219.898 147.273 221.242C147.118 222.593 147.115 224.019 147.264 225.518C147.414 227.024 147.577 228.307 147.752 229.368C147.927 230.428 148.216 231.852 148.618 233.639C149.013 235.427 149.285 236.735 149.436 237.564L149.436 237.564C149.766 239.131 149.865 240.475 149.732 241.595C149.606 242.722 149.048 243.638 148.058 244.342L148.058 244.342C146.35 245.593 144.334 245.929 142.012 245.35C139.696 244.77 138.091 243.512 137.197 241.577L137.197 241.577C136.435 236.899 137.101 233.614 139.196 231.724C141.299 229.84 141.512 231.587 139.835 236.966L139.835 236.966C140.006 238.791 140.486 240.094 141.275 240.873C142.063 241.646 142.761 242.181 143.37 242.477C143.985 242.772 144.659 242.833 145.391 242.66L145.391 242.66C145.596 242.57 145.843 242.121 146.13 241.312L146.13 241.312C146.314 240.347 146.265 238.998 145.983 237.264C145.694 235.526 145.43 234.206 145.192 233.307C144.953 232.407 144.586 231.092 144.09 229.363L144.09 229.363C144.084 229.303 144.084 229.179 144.09 228.99L144.09 228.99C144.175 228.29 144.11 227.969 143.895 228.026L143.895 228.026L143.631 228.195C141.754 229.619 140.023 230.102 138.437 229.644L138.437 229.644C137.469 229.373 136.485 228.524 135.486 227.097L135.486 227.097C134.755 225.862 134.445 224.551 134.556 223.164C134.673 221.77 135.238 220.549 136.251 219.5ZM139.359 220.431L139.359 220.431C138.35 221.512 138.007 222.679 138.331 223.932L138.331 223.932C138.874 226.032 139.579 227.035 140.448 226.941L140.448 226.941C140.975 226.917 141.399 226.714 141.719 226.33C142.034 225.954 142.346 225.304 142.654 224.378C142.963 223.453 143.154 222.892 143.226 222.697L143.226 222.697C143.454 222.203 143.552 221.589 143.519 220.854C143.487 220.12 143.308 219.553 142.983 219.152L142.983 219.152C142.757 218.801 142.406 218.689 141.93 218.814C141.461 218.945 141.008 219.152 140.569 219.434C140.13 219.717 139.727 220.049 139.359 220.431Z" fill="#5c832f" fill-rule="evenodd" opacity="1" stroke="none"/>
<path d="M155.1 231.267L155.1 231.267C153.448 230.507 152.204 229.297 151.366 227.638C150.529 225.972 150.277 224.212 150.613 222.358L150.613 222.358C150.78 221.307 151.204 220.175 151.884 218.961C152.563 217.741 152.937 217.02 153.007 216.798L153.007 216.798C153.502 215.55 154.383 214.922 155.649 214.912C156.915 214.895 158.085 215.362 159.161 216.311L159.161 216.311C160.309 217.38 161.233 218.816 161.931 220.618L161.931 220.618C163.106 223.656 162.377 226.896 159.747 230.34L159.747 230.34C159.307 230.924 158.587 231.301 157.586 231.47C156.585 231.639 155.756 231.571 155.1 231.267ZM156.083 226.513L156.083 226.513C157.163 226.644 157.913 226.328 158.334 225.565C158.753 224.795 158.783 223.866 158.424 222.779C158.071 221.69 157.445 220.742 156.546 219.934L156.546 219.934C156.168 219.6 155.613 219.959 154.882 221.01L154.882 221.01C153.873 222.4 153.508 223.674 153.788 224.83L153.788 224.83C154.022 225.811 154.787 226.372 156.083 226.513Z" fill="#5c832f" fill-rule="evenodd" opacity="1" stroke="none"/>
<path d="M163.713 213.494C163.863 212.398 164.228 211.437 164.809 210.609C165.395 209.774 166.068 209.111 166.826 208.62C167.591 208.135 168.864 208.03 170.644 208.307L170.644 208.307C172.807 209.199 174.146 210.14 174.662 211.13C175.179 212.126 175.422 213.22 175.39 214.41L175.39 214.41C175.209 215.027 174.981 215.521 174.706 215.893L174.706 215.893C174.19 216.579 173.685 217.325 173.188 218.129C172.699 218.934 172.266 219.544 171.888 219.96C171.511 220.377 171.192 220.834 170.931 221.332L170.931 221.332C170.712 221.355 170.523 221.5 170.364 221.765L170.364 221.765C170.262 221.937 170.305 222.026 170.494 222.033L170.494 222.033C172.161 222.134 173.668 222.456 175.014 223.001C176.354 223.546 177.265 224.309 177.747 225.29L177.747 225.29C178.569 227.051 177.784 229.188 175.395 231.701L175.395 231.701C173.813 233.314 172.309 234.627 170.883 235.64C169.457 236.653 167.913 237.283 166.25 237.531L166.25 237.531C165.762 237.61 165.301 237.533 164.867 237.299C164.432 237.064 164.301 236.719 164.473 236.265L164.473 236.265C164.605 236.063 164.883 235.751 165.307 235.33C165.731 234.908 165.936 234.634 165.922 234.508L165.922 234.508C165.902 234.014 165.864 233.509 165.808 232.992C165.753 232.482 165.697 232.028 165.64 231.632C165.577 231.23 165.452 230.734 165.268 230.144C165.076 229.554 164.941 229.106 164.86 228.8C164.78 228.493 164.627 228.01 164.402 227.351C164.168 226.685 164.025 226.231 163.972 225.989L163.972 225.989C163.919 225.807 163.806 225.568 163.633 225.271C163.46 224.975 163.314 224.716 163.196 224.494C163.079 224.272 163.009 224.005 162.989 223.692C162.969 223.385 163.055 223.094 163.246 222.819L163.246 222.819C163.494 222.51 163.621 221.95 163.627 221.138L163.627 221.138C163.752 220.561 163.668 219.997 163.373 219.445C163.079 218.901 162.927 218.143 162.915 217.172L162.915 217.172C163.305 215.815 163.571 214.589 163.713 213.494ZM166.132 216.501L166.132 216.501C166.139 216.876 166.235 217.395 166.421 218.059C166.601 218.73 166.682 219.254 166.662 219.632L166.662 219.632C167.574 219.694 168.379 219.325 169.077 218.525C169.776 217.732 170.346 216.936 170.79 216.137L170.79 216.137C171.166 215.593 171.47 214.986 171.699 214.318C171.921 213.65 171.765 212.735 171.23 211.572C170.702 210.409 169.724 210.328 168.296 211.327L168.296 211.327C167.261 212.787 166.649 213.786 166.459 214.323C166.269 214.86 166.16 215.586 166.132 216.501ZM168.579 228.678L168.579 228.678C168.632 228.86 168.73 229.235 168.872 229.803C169.007 230.365 169.141 230.833 169.276 231.208C169.411 231.589 169.59 231.938 169.812 232.256L169.812 232.256C169.928 232.149 170.302 231.827 170.934 231.289C171.56 230.752 171.988 230.37 172.218 230.144C172.441 229.912 172.732 229.565 173.091 229.104C173.45 228.643 173.654 228.205 173.703 227.79C173.753 227.383 173.69 226.954 173.513 226.503L173.513 226.503C173.363 225.983 172.882 225.532 172.069 225.151C171.263 224.769 170.477 224.573 169.712 224.562C168.94 224.552 168.325 224.759 167.868 225.184L167.868 225.184C167.763 225.638 167.722 225.971 167.745 226.183C167.769 226.402 167.9 226.804 168.137 227.388C168.375 227.973 168.522 228.402 168.579 228.678Z" fill="#5c832f" fill-rule="evenodd" opacity="1" stroke="none"/>
<path d="M182.388 234.322L182.388 234.322C182.077 234.295 181.728 233.958 181.343 233.309L181.343 233.309C181.166 232.543 180.933 231.05 180.645 228.828C180.358 226.606 180.007 224.89 179.594 223.681L179.594 223.681C179.555 223.625 179.442 223.45 179.256 223.155C179.069 222.86 178.941 222.599 178.869 222.372C178.797 222.145 178.78 221.919 178.816 221.693L178.816 221.693C178.862 221.568 178.968 221.402 179.134 221.196C179.299 220.991 179.392 220.823 179.411 220.693L179.411 220.693C179.417 220.19 179.298 219.09 179.053 217.393C178.81 215.703 178.754 214.599 178.885 214.082L178.885 214.082C178.967 213.416 179.292 212.824 179.859 212.306C180.434 211.788 180.983 211.782 181.507 212.288L181.507 212.288C181.989 212.712 182.282 213.247 182.385 213.893C182.489 214.539 182.481 215.18 182.363 215.817C182.244 216.453 182.2 217.132 182.231 217.853C182.262 218.567 182.462 219.203 182.83 219.759L182.83 219.759C184.232 219.701 185.541 219.777 186.758 219.987C187.968 220.205 189.114 220.66 190.195 221.354C191.271 222.056 192.074 222.971 192.606 224.101L192.606 224.101C193.091 225.114 193.124 226.224 192.705 227.429C192.292 228.628 191.627 229.638 190.71 230.462L190.71 230.462C189.283 231.71 187.902 232.698 186.566 233.426C185.236 234.147 183.843 234.446 182.388 234.322ZM184.566 230.565L184.566 230.565C185.947 230.321 187.18 229.749 188.262 228.847C189.338 227.945 189.795 226.91 189.635 225.74L189.635 225.74C189.521 225.002 189.075 224.353 188.297 223.793C187.519 223.234 186.624 222.868 185.613 222.696C184.609 222.524 183.683 222.547 182.835 222.766L182.835 222.766C183.221 226.326 183.798 228.925 184.566 230.565ZM196.553 220.243L196.553 220.243C196.643 221.078 196.822 222.078 197.089 223.242C197.356 224.4 197.598 225.4 197.817 226.241C198.035 227.076 198.19 228.011 198.282 229.047C198.382 230.089 198.356 231.058 198.205 231.953L198.205 231.953C198.145 232.268 197.864 232.586 197.363 232.909C196.868 233.231 196.325 233.354 195.733 233.277C195.148 233.2 194.772 232.825 194.605 232.152L194.605 232.152C193.511 226.698 192.871 223.12 192.687 221.416L192.687 221.416C192.512 219.806 192.477 217.164 192.581 213.491L192.581 213.491C192.524 212.961 192.672 212.442 193.026 211.934C193.373 211.427 193.834 211.066 194.407 210.849L194.407 210.849C195.066 210.556 195.743 210.647 196.438 211.122C197.127 211.597 197.392 212.091 197.233 212.605L197.233 212.605C196.481 214.946 196.254 217.492 196.553 220.243Z" fill="#5c832f" fill-rule="evenodd" opacity="1" stroke="none"/>
<path d="M213.641 220.974L213.641 220.974C213.695 221.471 213.831 222.295 214.05 223.445C214.268 224.594 214.406 225.582 214.462 226.407C214.517 227.226 214.458 227.977 214.283 228.66L214.283 228.66C214.082 229.399 213.492 229.798 212.512 229.858C211.533 229.917 210.892 229.571 210.589 228.819L210.589 228.819C210.416 228.402 210.389 227.778 210.507 226.947C210.619 226.123 210.658 225.556 210.624 225.244L210.624 225.244C210.558 225.191 210.468 225.077 210.355 224.901L210.355 224.901C210.249 224.786 210.179 224.729 210.146 224.733L210.146 224.733C210.096 224.832 209.978 225.097 209.789 225.526C209.601 225.956 209.475 226.244 209.411 226.392C209.346 226.54 209.216 226.795 209.021 227.158C208.826 227.522 208.675 227.773 208.569 227.912C208.457 228.051 208.299 228.263 208.095 228.546C207.892 228.837 207.703 229.038 207.527 229.151C207.352 229.264 207.139 229.404 206.889 229.572C206.645 229.74 206.399 229.847 206.149 229.894C205.905 229.934 205.634 229.963 205.334 229.982C205.04 229.994 204.719 229.972 204.371 229.916L204.371 229.916C203.79 229.194 203.291 228.427 202.874 227.614C202.457 226.801 202.109 225.813 201.828 224.649C201.542 223.493 201.34 222.647 201.221 222.11C201.103 221.573 200.925 220.526 200.689 218.969C200.461 217.418 200.333 216.517 200.305 216.265L200.305 216.265C199.847 214.94 199.963 214.129 200.655 213.833L200.655 213.833C202.574 213.095 203.639 213.12 203.852 213.909L203.852 213.909C204.166 215.068 204.506 216.909 204.873 219.431C205.242 221.959 205.637 223.874 206.06 225.176L206.06 225.176C206.824 224.121 207.504 222.445 208.1 220.147C208.695 217.843 209.182 216.278 209.562 215.452L209.562 215.452C209.865 214.789 210.397 214.402 211.156 214.293C211.908 214.178 212.46 214.447 212.813 215.099L212.813 215.099C213.055 215.603 213.227 216.171 213.33 216.803C213.425 217.437 213.491 218.198 213.527 219.086C213.563 219.973 213.601 220.603 213.641 220.974ZM206.119 210.142L206.119 210.142C206.413 209.386 206.665 208.802 206.875 208.39C207.078 207.979 207.393 207.576 207.82 207.181C208.247 206.793 208.726 206.57 209.256 206.513L209.256 206.513C209.561 206.48 209.913 206.629 210.311 206.962C210.709 207.294 210.86 207.606 210.764 207.898L210.764 207.898C210.435 209.188 210.108 210.132 209.784 210.73C209.453 211.33 208.813 212.167 207.864 213.242L207.864 213.242C207.641 213.481 207.385 213.71 207.093 213.929C206.808 214.148 206.497 214.309 206.16 214.413C205.828 214.509 205.583 214.408 205.423 214.11L205.423 214.11C205.191 213.7 205.087 213.298 205.111 212.907C205.129 212.509 205.161 212.248 205.207 212.122C205.26 211.989 205.389 211.723 205.594 211.326C205.799 210.928 205.974 210.533 206.119 210.142Z" fill="#5c832f" fill-rule="evenodd" opacity="1" stroke="none"/>
<path d="" fill="#5c832f" fill-rule="evenodd" opacity="1" stroke="none"/>
<path d="M238.652 216.381L238.652 216.381C238.736 216.908 238.798 217.793 238.839 219.036C238.881 220.285 239.324 221.039 240.17 221.296L240.17 221.296L241.701 221.592C242.341 221.992 242.657 222.461 242.648 222.998L242.648 222.998L242.75 224.768L242.32 226.464L241.485 226.927L240.734 226.958C240.307 227.038 240.088 226.813 240.078 226.285C240.067 225.749 239.934 225.268 239.68 224.839C239.433 224.417 238.741 224.156 237.603 224.058L237.603 224.058C236.555 223.669 236.018 223.141 235.993 222.473C235.967 221.805 235.923 221.3 235.859 220.958L235.859 220.958C235.786 220.906 235.695 220.805 235.585 220.656L235.585 220.656C235.452 220.55 235.37 220.499 235.337 220.502L235.337 220.502C235.314 220.599 235.219 220.867 235.052 221.308C234.878 221.749 234.77 222.049 234.727 222.208C234.678 222.374 234.568 222.654 234.396 223.048C234.217 223.443 234.072 223.707 233.959 223.84C233.853 223.979 233.707 224.206 233.519 224.521C233.333 224.843 233.153 225.068 232.979 225.194C232.805 225.32 232.604 225.476 232.376 225.661C232.14 225.841 231.902 225.961 231.66 226.021C231.418 226.074 231.141 226.117 230.829 226.151C230.518 226.185 230.19 226.19 229.845 226.167L229.845 226.167C229.208 225.485 228.641 224.742 228.145 223.938C227.648 223.126 227.22 222.147 226.861 220.999C226.501 219.844 226.238 218.994 226.071 218.449C225.905 217.904 225.65 216.852 225.307 215.293C224.963 213.735 224.763 212.817 224.706 212.542L224.706 212.542C224.154 211.22 224.219 210.399 224.902 210.076L224.902 210.076C226.809 209.179 227.9 209.124 228.173 209.913L228.173 209.913C228.579 211.056 229.054 212.905 229.6 215.461C230.145 218.017 230.689 219.94 231.231 221.229L231.231 221.229C231.925 220.088 232.495 218.326 232.941 215.944C233.387 213.562 233.767 211.931 234.08 211.052L234.08 211.052C234.348 210.366 234.865 209.941 235.632 209.778C236.393 209.621 236.981 209.849 237.396 210.462L237.396 210.462C237.672 210.961 237.881 211.532 238.024 212.174C238.174 212.815 238.298 213.586 238.396 214.487C238.493 215.382 238.578 216.013 238.652 216.381Z" fill="#5c832f" fill-rule="evenodd" opacity="1" stroke="none"/>
<path d="M243.298 214.609L243.298 214.609C242.98 212.297 243.502 210.346 244.866 208.756C246.229 207.167 248.057 206.405 250.351 206.471L250.351 206.471C252.234 206.515 253.948 207.238 255.495 208.639C257.041 210.034 257.902 211.694 258.077 213.62L258.077 213.62C257.893 214.518 256.737 215.764 254.61 217.356C252.476 218.948 251.273 219.917 251.002 220.262L251.002 220.262C250.846 220.305 250.664 220.449 250.455 220.693C250.247 220.937 250.216 221.145 250.362 221.317L250.362 221.317C250.807 221.953 251.322 222.379 251.909 222.597C252.496 222.815 253.131 222.827 253.814 222.632C254.496 222.431 255.114 222.189 255.667 221.908C256.214 221.634 256.853 221.253 257.585 220.765L257.585 220.765C258.453 221.294 258.799 222.095 258.62 223.167C258.44 224.233 257.879 224.897 256.935 225.16L256.935 225.16C256.869 225.168 256.533 225.258 255.928 225.431C255.323 225.603 254.942 225.708 254.785 225.746C254.634 225.775 254.3 225.842 253.781 225.945C253.256 226.049 252.852 226.093 252.568 226.077C252.285 226.06 251.937 226.034 251.524 225.999C251.118 225.969 250.721 225.895 250.333 225.776L250.333 225.776C246.433 224.509 244.088 220.787 243.298 214.609ZM248.615 216.427L248.615 216.427C251.385 216.005 252.95 214.85 253.308 212.96L253.308 212.96C253.688 211.826 253.197 211.041 251.836 210.605C250.468 210.177 249.303 210.28 248.339 210.914L248.339 210.914C247.76 211.326 247.418 211.983 247.315 212.886C247.205 213.79 247.301 214.608 247.601 215.34C247.903 216.078 248.241 216.44 248.615 216.427Z" fill="#5c832f" fill-rule="evenodd" opacity="1" stroke="none"/>
<path d="M274.581 215.542C274.531 215.949 274.54 216.589 274.608 217.46C274.669 218.332 274.687 219.091 274.663 219.737C274.639 220.377 274.524 221.047 274.318 221.746C274.112 222.439 273.686 223.002 273.043 223.434C272.405 223.865 271.525 224.125 270.401 224.213L270.401 224.213C269.939 223.418 269.812 222.03 270.02 220.05C270.228 218.069 269.978 216.852 269.272 216.399L269.272 216.399C269.159 216.224 268.806 216.121 268.213 216.092C267.613 216.063 267.002 216.152 266.381 216.361C265.76 216.569 265.38 216.898 265.241 217.349L265.241 217.349C265.02 217.91 264.879 218.676 264.816 219.648C264.748 220.628 264.681 221.521 264.614 222.326C264.54 223.132 264.382 223.924 264.137 224.701C263.893 225.479 263.428 226.079 262.743 226.502C262.051 226.919 261.138 227.095 260.004 227.03L260.004 227.03C259.924 226.288 260.013 224.823 260.272 222.636C260.538 220.448 260.453 218.797 260.017 217.685L260.017 217.685C260.01 217.618 259.841 217.486 259.511 217.287C259.174 217.089 259.011 216.882 259.021 216.666L259.021 216.666C259.053 216.408 259.265 216.07 259.655 215.652C260.053 215.233 260.256 214.946 260.266 214.791L260.266 214.791C260.248 214.008 260.063 212.949 259.71 211.612C259.363 210.268 259.141 209.21 259.044 208.436C258.94 207.669 259.039 206.626 259.338 205.306L259.338 205.306C259.457 204.984 259.824 204.743 260.436 204.583C261.043 204.423 261.676 204.415 262.335 204.558C262.988 204.708 263.39 205.04 263.539 205.554L263.539 205.554C263.813 206.591 264.019 207.97 264.159 209.691C264.299 211.413 264.635 212.718 265.167 213.605L265.167 213.605C265.462 213.976 266.119 214.035 267.138 213.784C268.156 213.533 268.803 213.221 269.078 212.849L269.078 212.849C269.366 212.349 269.488 211.802 269.444 211.21C269.393 210.619 269.279 210.092 269.101 209.628C268.93 209.164 268.678 208.571 268.345 207.849C268.019 207.134 267.79 206.595 267.657 206.234L267.657 206.234C267.511 205.754 267.81 205.205 268.554 204.588L268.554 204.588C269.24 204.232 269.981 204.044 270.777 204.025C271.572 203.999 272.13 204.173 272.453 204.547L272.453 204.547C273.023 205.169 273.389 205.887 273.551 206.701C273.72 207.514 273.816 208.523 273.839 209.728C273.855 210.926 273.907 211.772 273.994 212.266L273.994 212.266C274.077 212.478 274.211 212.785 274.396 213.188C274.58 213.59 274.697 213.866 274.747 214.015L274.747 214.015C274.797 214.17 274.778 214.424 274.689 214.776C274.599 215.127 274.563 215.383 274.581 215.542L274.581 215.542Z" fill="#5c832f" fill-rule="evenodd" opacity="1" stroke="none"/>
<path d="M276.701 210.333L276.701 210.333C276.321 208.557 276.358 207.041 276.811 205.784C277.272 204.527 278.271 204.067 279.81 204.403L279.81 204.403C280.36 204.531 280.739 204.842 280.947 205.336C281.155 205.83 281.222 206.386 281.148 207.004C281.074 207.622 281.066 208.257 281.123 208.908C281.181 209.558 281.356 210.089 281.648 210.5L281.648 210.5C282.032 210.016 282.398 209.343 282.747 208.48C283.088 207.611 283.373 206.836 283.601 206.154C283.822 205.473 284.136 204.782 284.543 204.081C284.956 203.379 285.412 202.944 285.91 202.776C286.409 202.614 287.121 202.624 288.046 202.806L288.046 202.806C288.534 203.222 288.844 203.487 288.977 203.6L288.977 203.6C289.156 204.077 289.365 204.922 289.604 206.137C289.849 207.344 290.111 208.248 290.391 208.848L290.391 208.848C290.582 208.572 290.836 208.159 291.152 207.609C291.468 207.058 291.73 206.6 291.938 206.236C292.154 205.87 292.43 205.448 292.767 204.969C293.111 204.496 293.446 204.124 293.772 203.854C294.105 203.583 294.469 203.323 294.864 203.072C295.26 202.828 295.685 202.698 296.14 202.682C296.587 202.66 297.07 202.732 297.591 202.897L297.591 202.897C297.927 203.082 298.167 203.354 298.314 203.714C298.467 204.073 298.575 204.547 298.639 205.137C298.702 205.72 298.757 206.103 298.804 206.286L298.804 206.286C300.294 212.796 300.533 218.299 299.518 222.795L299.518 222.795C299.417 223.591 298.947 224.111 298.108 224.356C297.276 224.601 296.479 224.516 295.717 224.103L295.717 224.103C295.651 224.11 295.578 224.03 295.5 223.865C295.422 223.699 295.369 223.493 295.343 223.248C295.315 222.996 295.32 222.761 295.357 222.542L295.357 222.542C296.203 218.534 295.981 213.891 294.691 208.613L294.691 208.613C294.644 208.182 294.427 208.189 294.039 208.633L294.039 208.633C293.871 208.812 293.764 208.998 293.717 209.191L293.717 209.191C292.359 211.934 291.4 215.216 290.842 219.039L290.842 219.039C290.591 219.877 289.993 220.512 289.047 220.943C288.108 221.374 287.315 221.202 286.668 220.427L286.668 220.427C286.636 218.962 286.54 217.266 286.377 215.338C286.216 213.418 285.904 211.903 285.442 210.793L285.442 210.793C284.333 211.885 283.596 213.25 283.23 214.885C282.858 216.522 282.519 218.53 282.214 220.91L282.214 220.91C281.857 221.639 281.228 222.053 280.327 222.151C279.432 222.248 278.822 221.969 278.496 221.313L278.496 221.313C277.93 220.121 277.551 218.354 277.358 216.015C277.17 213.668 276.951 211.774 276.701 210.333Z" fill="#5c832f" fill-rule="evenodd" opacity="1" stroke="none"/>
<path d="M302.129 205.322L302.129 205.322C302.142 205.132 302.01 204.838 301.732 204.439C301.454 204.047 301.379 203.72 301.505 203.458L301.505 203.458C301.872 203.076 302.018 202.38 301.942 201.369C301.859 200.358 302.065 199.656 302.558 199.26L302.558 199.26C303.157 198.726 303.78 198.407 304.426 198.303C305.072 198.2 305.655 198.388 306.177 198.868L306.177 198.868C306.449 199.086 306.635 199.505 306.736 200.125C306.836 200.737 306.949 201.067 307.074 201.114L307.074 201.114C308.201 201.119 309.242 201.187 310.195 201.319C311.154 201.449 312.145 201.677 313.166 202.002C314.187 202.334 314.997 202.873 315.594 203.62C316.192 204.373 316.485 205.28 316.473 206.341L316.473 206.341C316.475 207.534 316.25 208.555 315.799 209.401C315.341 210.249 314.694 210.93 313.858 211.443C313.021 211.956 312.205 212.373 311.408 212.694C310.612 213.015 309.664 213.363 308.564 213.737C307.457 214.105 306.608 214.432 306.015 214.717L306.015 214.717C305.888 217.011 305.928 218.737 306.134 219.895C306.333 221.047 306.877 222.701 307.769 224.857L307.769 224.857C307.779 224.95 307.856 225.076 308.001 225.235C308.144 225.387 308.312 225.57 308.503 225.784C308.7 225.997 308.854 226.178 308.964 226.327L308.964 226.327C309.419 227.062 309.163 227.576 308.196 227.869C307.222 228.162 306.38 228.19 305.67 227.952L305.67 227.952C305.504 227.909 305.339 227.84 305.175 227.744C305.011 227.654 304.867 227.569 304.745 227.489C304.629 227.408 304.514 227.279 304.401 227.104C304.288 226.928 304.192 226.788 304.114 226.682C304.043 226.583 303.954 226.415 303.848 226.178C303.748 225.934 303.675 225.754 303.629 225.638C303.582 225.516 303.52 225.318 303.444 225.045C303.367 224.772 303.323 224.582 303.311 224.476C303.299 224.363 303.253 224.157 303.174 223.857C303.094 223.551 303.05 223.368 303.044 223.308L303.044 223.308C302.764 222.145 302.541 220.955 302.375 219.739C302.216 218.516 302.121 217.272 302.091 216.008C302.061 214.744 302.048 213.595 302.049 212.562C302.045 211.53 302.058 210.292 302.089 208.847C302.12 207.401 302.133 206.226 302.129 205.322ZM307.075 205.017L307.075 205.017C306.526 205.7 306.19 206.776 306.067 208.244C305.946 209.719 306.145 210.569 306.666 210.794L306.666 210.794C307.674 211.121 308.812 210.857 310.08 210.002C311.348 209.14 311.999 207.973 312.034 206.501L312.034 206.501C312.102 205.393 311.503 204.784 310.237 204.674L310.237 204.674C309.653 204.489 309.058 204.413 308.452 204.445C307.845 204.477 307.386 204.668 307.075 205.017Z" fill="#5c832f" fill-rule="evenodd" opacity="1" stroke="none"/>
</g>
<g opacity="1">
<path d="M92.127 276.797L92.127 276.797C90.0061 277.027 87.9853 276.542 86.0647 275.342C84.1508 274.142 82.8228 272.532 82.0809 270.514L82.0809 270.514C80.4817 267.207 79.9746 263.212 80.5596 258.528C81.1506 253.837 82.6424 250.218 85.0352 247.672L85.0352 247.672C85.7239 246.974 86.4583 246.82 87.2384 247.212C88.0185 247.603 88.5274 248.215 88.7653 249.048L88.7653 249.048C89.3255 250.751 89.2252 253.35 88.4643 256.846C87.6961 260.336 87.6498 263 88.3252 264.837L88.3252 264.837C88.8712 266.347 90.0036 267.452 91.7223 268.15C93.4469 268.842 94.708 268.692 95.5057 267.7L95.5057 267.7C96.4689 266.502 97.0453 264.676 97.2351 262.221C97.4182 259.767 97.4155 257.454 97.2268 255.282C97.0447 253.109 97.2504 251.048 97.8437 249.099C98.4444 247.157 99.6249 245.922 101.385 245.396L101.385 245.396C102.624 246.308 103.416 247.58 103.76 249.212C104.105 250.844 104.125 252.452 103.821 254.034C103.516 255.616 103.248 257.445 103.018 259.522C102.794 261.599 102.823 263.289 103.105 264.592L103.105 264.592C103.264 265.192 103.387 265.772 103.475 266.333C103.556 266.901 103.587 267.4 103.567 267.831C103.54 268.264 103.473 268.76 103.366 269.322C103.259 269.877 103.164 270.326 103.08 270.671C103.003 271.014 102.866 271.482 102.669 272.073C102.465 272.665 102.332 273.109 102.27 273.404L102.27 273.404C101.969 275.012 101.772 276.261 101.681 277.149C101.583 278.045 101.556 279.335 101.598 281.021C101.64 282.713 101.925 284.006 102.451 284.901L102.451 284.901C102.59 285.315 102.536 285.714 102.289 286.096C102.042 286.478 101.682 286.899 101.209 287.36C100.735 287.813 100.418 288.17 100.258 288.428L100.258 288.428C99.0776 289.844 97.7283 289.491 96.2106 287.369L96.2106 287.369C95.5587 286.675 95.2214 285.018 95.1988 282.399C95.1763 279.779 95.0183 277.982 94.7249 277.008L94.7249 277.008C94.6789 276.584 94.533 276.352 94.2872 276.312C94.0473 276.264 93.6853 276.326 93.2011 276.5C92.7236 276.672 92.3656 276.771 92.127 276.797Z" fill="#5c832f" fill-rule="evenodd" opacity="1" stroke="none"/>
<path d="M129.396 270.321L129.396 270.321C129.478 271.077 129.687 272.328 130.024 274.075C130.356 275.83 130.565 277.332 130.654 278.583C130.744 279.841 130.653 280.984 130.382 282.013L130.382 282.013C130.076 283.146 129.177 283.756 127.684 283.844C126.192 283.932 125.216 283.405 124.756 282.261L124.756 282.261C124.5 281.625 124.457 280.677 124.629 279.418C124.801 278.159 124.861 277.294 124.81 276.823L124.81 276.823C124.707 276.741 124.571 276.564 124.401 276.294L124.401 276.294C124.235 276.125 124.129 276.042 124.082 276.047L124.082 276.047C124.005 276.197 123.824 276.598 123.539 277.253C123.247 277.901 123.057 278.338 122.967 278.562C122.871 278.787 122.675 279.177 122.38 279.732C122.078 280.288 121.845 280.672 121.68 280.885C121.508 281.091 121.268 281.415 120.961 281.858C120.653 282.294 120.364 282.596 120.094 282.767C119.824 282.943 119.503 283.159 119.128 283.414C118.753 283.67 118.378 283.828 118.002 283.889C117.628 283.956 117.213 284.001 116.76 284.023C116.314 284.052 115.821 284.021 115.281 283.932L115.281 283.932C114.405 282.84 113.648 281.672 113.01 280.427C112.373 279.188 111.841 277.683 111.414 275.912C110.981 274.149 110.674 272.861 110.492 272.049C110.309 271.231 110.043 269.637 109.692 267.268C109.334 264.899 109.135 263.526 109.094 263.148L109.094 263.148C108.399 261.131 108.577 259.898 109.628 259.449L109.628 259.449C112.557 258.32 114.181 258.358 114.499 259.564L114.499 259.564C114.978 261.323 115.497 264.127 116.055 267.976C116.62 271.824 117.225 274.739 117.869 276.721L117.869 276.721C119.029 275.113 120.063 272.557 120.97 269.052C121.877 265.547 122.618 263.167 123.193 261.911L123.193 261.911C123.661 260.908 124.469 260.321 125.617 260.149C126.765 259.971 127.607 260.379 128.144 261.374L128.144 261.374C128.516 262.145 128.778 263.012 128.929 263.974C129.08 264.93 129.181 266.086 129.235 267.442C129.281 268.798 129.335 269.758 129.396 270.321Z" fill="#5c832f" fill-rule="evenodd" opacity="1" stroke="none"/>
<path d="M138.548 255.095C138.634 256.327 138.79 257.765 139.016 259.41L139.016 259.41C139.133 259.632 139.301 259.755 139.518 259.778C139.735 259.801 139.984 259.774 140.264 259.697L140.264 259.697L140.684 259.581C140.978 259.268 141.584 258.608 142.501 257.604C143.417 256.592 144.114 255.873 144.591 255.446C145.073 255.011 145.727 254.545 146.551 254.046C147.383 253.554 148.216 253.323 149.051 253.353C149.885 253.376 150.757 253.627 151.667 254.105L151.667 254.105C152.54 254.674 152.866 255.353 152.643 256.142C152.42 256.93 151.93 257.58 151.174 258.091L151.174 258.091C150.873 258.406 149.853 259.231 148.113 260.566C146.38 261.9 145.141 263.084 144.394 264.118L144.394 264.118C147.779 266.325 152.919 270.224 159.815 275.813L159.815 275.813C160.792 276.901 160.612 278.09 159.277 279.382L159.277 279.382C158.758 280.343 157.974 280.905 156.925 281.065C155.87 281.227 155.065 280.979 154.511 280.321L154.511 280.321C153.355 279.307 152.127 278.31 150.827 277.331C149.534 276.351 147.957 275.198 146.096 273.871C144.236 272.55 142.941 271.618 142.212 271.073L142.212 271.073L141.538 270.795C141.206 270.83 141.152 271.192 141.374 271.879L141.374 271.879C141.341 272.935 141.61 274.552 142.182 276.73C142.753 278.907 143.048 280.518 143.068 281.562L143.068 281.562C143.066 282.474 142.68 283.21 141.909 283.77C141.138 284.33 140.324 284.609 139.465 284.609C138.606 284.601 138.052 284.349 137.804 283.853L137.804 283.853C136.423 281.193 135.326 278.01 134.515 274.302C133.711 270.601 133.211 267.533 133.014 265.1C132.824 262.667 132.613 259.484 132.381 255.553L132.381 255.553C132.552 254.529 133.015 253.761 133.771 253.25L133.771 253.25L136.107 252.996C137.265 253.159 138.045 253.554 138.448 254.181L138.448 254.181L138.548 255.095Z" fill="#5c832f" fill-rule="evenodd" opacity="1" stroke="none"/>
<path d="" fill="#5c832f" fill-rule="evenodd" opacity="1" stroke="none"/>
<path d="M177.319 257.187L177.319 257.187C178.738 257.033 180.694 256.928 183.189 256.872C185.685 256.816 187.654 256.733 189.097 256.624C190.54 256.514 192.542 256.176 195.103 255.61L195.103 255.61C195.414 255.389 195.776 255.326 196.189 255.422C196.608 255.517 196.929 255.721 197.15 256.032L197.15 256.032C197.155 256.508 197.219 256.883 197.343 257.158C197.466 257.433 197.406 257.738 197.16 258.073C196.908 258.409 196.745 258.664 196.67 258.84C196.595 259.016 196.366 259.218 195.982 259.448C195.605 259.683 195.337 259.843 195.179 259.927C195.021 260.018 194.751 260.155 194.368 260.337C193.98 260.527 193.742 260.65 193.654 260.706L193.654 260.706C187.853 263.052 181.702 263.719 175.202 262.707L175.202 262.707C174.814 262.656 174.506 262.568 174.278 262.446C174.051 262.329 173.933 262.225 173.923 262.132L173.923 262.132L173.829 261.921C173.521 260.814 173.731 259.779 174.458 258.815C175.192 257.857 176.146 257.314 177.319 257.187Z" fill="#5c832f" fill-rule="evenodd" opacity="1" stroke="none"/>
<path d="" fill="#5c832f" fill-rule="evenodd" opacity="1" stroke="none"/>
<path d="M222.681 262.638L222.681 262.638C220.56 262.868 218.543 262.382 216.629 261.182C214.708 259.982 213.377 258.373 212.635 256.354L212.635 256.354C211.036 253.047 210.529 249.052 211.114 244.368C211.705 239.677 213.197 236.059 215.59 233.512L215.59 233.512C216.278 232.814 217.013 232.661 217.793 233.052C218.573 233.444 219.082 234.056 219.32 234.888L219.32 234.888C219.886 236.59 219.786 239.19 219.019 242.686C218.251 246.176 218.204 248.84 218.88 250.678L218.88 250.678C219.426 252.188 220.561 253.292 222.287 253.99C224.005 254.682 225.262 254.532 226.06 253.54L226.06 253.54C227.023 252.343 227.6 250.517 227.789 248.062C227.979 245.607 227.98 243.293 227.791 241.121C227.602 238.949 227.808 236.888 228.408 234.939C229.009 232.996 230.186 231.762 231.939 231.236L231.939 231.236C233.178 232.148 233.97 233.42 234.315 235.052C234.659 236.685 234.68 238.292 234.375 239.874C234.07 241.456 233.803 243.286 233.572 245.363C233.348 247.439 233.377 249.129 233.659 250.433L233.659 250.433C233.818 251.032 233.942 251.612 234.029 252.173C234.111 252.741 234.142 253.24 234.121 253.672C234.094 254.104 234.028 254.601 233.921 255.162C233.813 255.717 233.721 256.166 233.645 256.51C233.561 256.854 233.421 257.322 233.223 257.913C233.026 258.505 232.893 258.948 232.825 259.244L232.825 259.244C232.523 260.853 232.326 262.101 232.235 262.989C232.138 263.885 232.11 265.176 232.152 266.861C232.195 268.553 232.479 269.846 233.005 270.742L233.005 270.742C233.144 271.156 233.09 271.554 232.843 271.936C232.603 272.318 232.243 272.739 231.763 273.2C231.289 273.654 230.973 274.01 230.813 274.269L230.813 274.269C229.632 275.684 228.283 275.331 226.765 273.209L226.765 273.209C226.113 272.515 225.779 270.858 225.763 268.238C225.741 265.618 225.579 263.822 225.279 262.849L225.279 262.849C225.233 262.425 225.091 262.192 224.851 262.151C224.605 262.104 224.24 262.167 223.756 262.34C223.278 262.513 222.92 262.612 222.681 262.638Z" fill="#5c832f" fill-rule="evenodd" opacity="1" stroke="none"/>
<path d="M259.96 256.16L259.96 256.16C260.042 256.916 260.248 258.167 260.579 259.915C260.91 261.67 261.12 263.173 261.209 264.424C261.298 265.681 261.207 266.825 260.937 267.853L260.937 267.853C260.63 268.986 259.731 269.597 258.239 269.685C256.746 269.773 255.773 269.245 255.321 268.1L255.321 268.1C255.057 267.465 255.012 266.517 255.183 265.258C255.355 263.999 255.416 263.134 255.365 262.664L255.365 262.664C255.262 262.581 255.125 262.405 254.955 262.135L254.955 262.135C254.796 261.964 254.693 261.881 254.647 261.887L254.647 261.887C254.562 262.036 254.378 262.439 254.094 263.093C253.808 263.741 253.618 264.177 253.521 264.403C253.425 264.628 253.229 265.018 252.934 265.573C252.632 266.128 252.399 266.512 252.234 266.725C252.069 266.931 251.829 267.255 251.515 267.698C251.207 268.134 250.918 268.437 250.648 268.607C250.385 268.783 250.064 268.999 249.682 269.255C249.308 269.51 248.932 269.668 248.557 269.729C248.182 269.796 247.768 269.841 247.314 269.864C246.868 269.892 246.378 269.861 245.846 269.771L245.846 269.771C244.963 268.68 244.202 267.512 243.564 266.267C242.934 265.028 242.402 263.523 241.968 261.753C241.536 259.989 241.228 258.701 241.046 257.89C240.864 257.071 240.597 255.477 240.246 253.108C239.895 250.739 239.699 249.365 239.658 248.987L239.658 248.987C238.964 246.971 239.138 245.738 240.183 245.289L240.183 245.289C243.111 244.16 244.738 244.198 245.064 245.404L245.064 245.404C245.536 247.163 246.055 249.967 246.62 253.815C247.178 257.664 247.779 260.579 248.423 262.561L248.423 262.561C249.583 260.954 250.617 258.397 251.524 254.892C252.432 251.387 253.173 249.007 253.747 247.751L253.747 247.751C254.215 246.748 255.023 246.161 256.171 245.989C257.319 245.811 258.161 246.22 258.698 247.214L258.698 247.214C259.07 247.985 259.332 248.852 259.483 249.815C259.634 250.771 259.736 251.926 259.789 253.282C259.842 254.637 259.899 255.597 259.96 256.16Z" fill="#5c832f" fill-rule="evenodd" opacity="1" stroke="none"/>
<path d="M265.046 246.385L265.046 246.385C265.061 246.095 264.859 245.651 264.439 245.053C264.018 244.454 263.904 243.954 264.095 243.551L264.095 243.551C264.655 242.967 264.875 241.907 264.756 240.371C264.636 238.835 264.949 237.765 265.695 237.161L265.695 237.161C266.606 236.345 267.552 235.86 268.535 235.706C269.524 235.552 270.413 235.838 271.203 236.564L271.203 236.564C271.621 236.894 271.904 237.53 272.054 238.473C272.202 239.409 272.377 239.913 272.58 239.985L272.58 239.985C274.297 239.993 275.881 240.097 277.331 240.295C278.781 240.493 280.284 240.843 281.84 241.345C283.396 241.84 284.632 242.658 285.547 243.799C286.455 244.941 286.9 246.325 286.882 247.949L286.882 247.949C286.89 249.759 286.549 251.308 285.857 252.597C285.159 253.893 284.176 254.932 282.906 255.713C281.629 256.496 280.384 257.13 279.169 257.617C277.961 258.104 276.52 258.629 274.844 259.193C273.162 259.758 271.868 260.257 270.963 260.69L270.963 260.69C270.766 264.192 270.823 266.818 271.133 268.568C271.444 270.324 272.278 272.846 273.633 276.132L273.633 276.132C273.649 276.271 273.766 276.46 273.986 276.698C274.2 276.936 274.456 277.22 274.753 277.55C275.049 277.873 275.284 278.146 275.455 278.369L275.455 278.369C276.146 279.481 275.754 280.261 274.281 280.709C272.801 281.158 271.518 281.203 270.433 280.845L270.433 280.845C270.184 280.771 269.934 280.664 269.684 280.524C269.428 280.391 269.209 280.26 269.028 280.132C268.847 280.011 268.672 279.815 268.502 279.546C268.332 279.282 268.189 279.073 268.071 278.918C267.961 278.763 267.825 278.502 267.665 278.138C267.511 277.772 267.398 277.499 267.325 277.319C267.257 277.132 267.168 276.83 267.055 276.413C266.937 275.997 266.868 275.706 266.85 275.54C266.832 275.375 266.761 275.06 266.637 274.598C266.52 274.134 266.456 273.856 266.446 273.763L266.446 273.763C266.013 272 265.673 270.189 265.425 268.332C265.176 266.475 265.031 264.582 264.99 262.656C264.949 260.729 264.927 258.981 264.924 257.412C264.914 255.837 264.934 253.951 264.984 251.753C265.034 249.555 265.055 247.765 265.046 246.385ZM272.58 245.92L272.58 245.92C271.741 246.963 271.228 248.605 271.042 250.844C270.855 253.084 271.16 254.376 271.955 254.718L271.955 254.718C273.491 255.216 275.224 254.813 277.155 253.511C279.085 252.202 280.072 250.425 280.117 248.18L280.117 248.18C280.223 246.499 279.311 245.572 277.381 245.399L277.381 245.399C276.492 245.113 275.588 244.997 274.668 245.05C273.742 245.103 273.046 245.393 272.58 245.92Z" fill="#5c832f" fill-rule="evenodd" opacity="1" stroke="none"/>
<path d="M309.718 250.763L309.718 250.763C309.8 251.519 310.007 252.771 310.337 254.519C310.675 256.273 310.888 257.775 310.977 259.026C311.066 260.284 310.976 261.427 310.705 262.455L310.705 262.455C310.399 263.588 309.499 264.199 308.007 264.287C306.514 264.375 305.538 263.847 305.079 262.703L305.079 262.703C304.822 262.067 304.78 261.12 304.952 259.861C305.123 258.601 305.184 257.736 305.133 257.266L305.133 257.266C305.03 257.183 304.89 257.007 304.713 256.738L304.713 256.738C304.554 256.568 304.451 256.485 304.405 256.49L304.405 256.49C304.327 256.639 304.143 257.041 303.852 257.696C303.567 258.344 303.376 258.781 303.28 259.006C303.19 259.23 302.994 259.62 302.692 260.176C302.397 260.731 302.164 261.115 301.993 261.328C301.827 261.534 301.591 261.858 301.283 262.3C300.968 262.737 300.679 263.04 300.416 263.209C300.147 263.386 299.825 263.602 299.45 263.857C299.069 264.113 298.691 264.271 298.315 264.332C297.94 264.4 297.529 264.444 297.082 264.466C296.629 264.495 296.137 264.465 295.604 264.375L295.604 264.375C294.721 263.284 293.964 262.115 293.333 260.869C292.695 259.631 292.16 258.126 291.727 256.356C291.301 254.592 290.997 253.304 290.815 252.492C290.625 251.674 290.355 250.081 290.004 247.711C289.654 245.342 289.458 243.969 289.417 243.591L289.417 243.591C288.722 241.574 288.897 240.341 289.941 239.893L289.941 239.893C292.876 238.763 294.503 238.801 294.822 240.007L294.822 240.007C295.301 241.766 295.82 244.569 296.378 248.418C296.936 252.267 297.537 255.183 298.181 257.165L298.181 257.165C299.341 255.557 300.375 253.001 301.283 249.496C302.19 245.991 302.934 243.61 303.515 242.353L303.515 242.353C303.977 241.351 304.781 240.764 305.93 240.593C307.084 240.414 307.929 240.822 308.466 241.816L308.466 241.816C308.832 242.588 309.09 243.455 309.241 244.418C309.399 245.373 309.501 246.529 309.547 247.885C309.6 249.241 309.657 250.2 309.718 250.763Z" fill="#5c832f" fill-rule="evenodd" opacity="1" stroke="none"/>
<path d="M318.87 235.538C318.957 236.769 319.113 238.207 319.338 239.853L319.338 239.853C319.456 240.075 319.624 240.197 319.841 240.221C320.058 240.244 320.306 240.217 320.586 240.14L320.586 240.14L320.996 240.025C321.297 239.711 321.907 239.051 322.824 238.046C323.74 237.035 324.436 236.316 324.913 235.888C325.389 235.455 326.043 234.988 326.874 234.489C327.699 233.997 328.532 233.766 329.373 233.795C330.207 233.819 331.08 234.07 331.99 234.548L331.99 234.548C332.863 235.117 333.188 235.796 332.965 236.584C332.736 237.374 332.246 238.023 331.497 238.534L331.497 238.534C331.196 238.848 330.175 239.673 328.436 241.008C326.696 242.344 325.453 243.528 324.707 244.561L324.707 244.561C328.092 246.769 333.235 250.667 340.138 256.256L340.138 256.256C341.114 257.343 340.935 258.533 339.6 259.824L339.6 259.824C339.08 260.786 338.293 261.347 337.238 261.509C336.182 261.67 335.381 261.422 334.833 260.764L334.833 260.764C333.677 259.749 332.449 258.752 331.149 257.774C329.849 256.795 328.269 255.642 326.409 254.315C324.549 252.994 323.257 252.061 322.534 251.516L322.534 251.516L321.86 251.237C321.529 251.273 321.471 251.635 321.686 252.322L321.686 252.322C321.66 253.378 321.933 254.995 322.504 257.172C323.069 259.351 323.361 260.962 323.38 262.006L323.38 262.006C323.385 262.917 323.002 263.653 322.232 264.213C321.454 264.773 320.636 265.053 319.778 265.052C318.919 265.045 318.368 264.793 318.127 264.296L318.127 264.296C316.738 261.637 315.642 258.453 314.838 254.745C314.027 251.044 313.527 247.977 313.337 245.543C313.146 243.109 312.932 239.927 312.694 235.997L312.694 235.997C312.871 234.972 313.337 234.203 314.093 233.692L314.093 233.692L316.42 233.44C317.584 233.602 318.368 233.996 318.771 234.623L318.771 234.623L318.87 235.538Z" fill="#5c832f" fill-rule="evenodd" opacity="1" stroke="none"/>
</g>
</g>
</svg>
