<?xml version="1.0" encoding="UTF-8" standalone="no"?>
<!DOCTYPE svg PUBLIC "-//W3C//DTD SVG 1.1//EN" "http://www.w3.org/Graphics/SVG/1.1/DTD/svg11.dtd"
[
<!ATTLIST g
  xmlns:vectornator CDATA #FIXED "http://vectornator.io"
  vectornator:layerName CDATA #IMPLIED >
<!ATTLIST g
  xmlns:vectornator CDATA #FIXED "http://vectornator.io"
  vectornator:mask CDATA #IMPLIED >
<!ATTLIST text
  xmlns:vectornator CDATA #FIXED "http://vectornator.io"
  vectornator:width CDATA #IMPLIED >
<!ATTLIST text
  xmlns:vectornator CDATA #FIXED "http://vectornator.io"
  vectornator:text CDATA #IMPLIED >

<!ATTLIST path
  xmlns:vectornator CDATA #FIXED "http://vectornator.io"
  vectornator:blendMode CDATA #IMPLIED >
<!ATTLIST path
  xmlns:vectornator CDATA #FIXED "http://vectornator.io"
  vectornator:shadowColor CDATA #IMPLIED >
<!ATTLIST path
  xmlns:vectornator CDATA #FIXED "http://vectornator.io"
  vectornator:shadowOpacity CDATA #IMPLIED >
<!ATTLIST path
  xmlns:vectornator CDATA #FIXED "http://vectornator.io"
  vectornator:shadowRadius CDATA #IMPLIED >
<!ATTLIST path
  xmlns:vectornator CDATA #FIXED "http://vectornator.io"
  vectornator:shadowOffset CDATA #IMPLIED >
<!ATTLIST path
  xmlns:vectornator CDATA #FIXED "http://vectornator.io"
  vectornator:shadowAngle CDATA #IMPLIED >

<!ATTLIST image
  xmlns:vectornator CDATA #FIXED "http://vectornator.io"
  vectornator:blendMode CDATA #IMPLIED >
<!ATTLIST image
  xmlns:vectornator CDATA #FIXED "http://vectornator.io"
  vectornator:shadowColor CDATA #IMPLIED >
<!ATTLIST image
  xmlns:vectornator CDATA #FIXED "http://vectornator.io"
  vectornator:shadowOpacity CDATA #IMPLIED >
<!ATTLIST image
  xmlns:vectornator CDATA #FIXED "http://vectornator.io"
  vectornator:shadowRadius CDATA #IMPLIED >
<!ATTLIST image
  xmlns:vectornator CDATA #FIXED "http://vectornator.io"
  vectornator:shadowOffset CDATA #IMPLIED >
<!ATTLIST image
  xmlns:vectornator CDATA #FIXED "http://vectornator.io"
  vectornator:shadowAngle CDATA #IMPLIED >

<!ATTLIST g
  xmlns:vectornator CDATA #FIXED "http://vectornator.io"
  vectornator:blendMode CDATA #IMPLIED >
<!ATTLIST g
  xmlns:vectornator CDATA #FIXED "http://vectornator.io"
  vectornator:shadowColor CDATA #IMPLIED >
<!ATTLIST g
  xmlns:vectornator CDATA #FIXED "http://vectornator.io"
  vectornator:shadowOpacity CDATA #IMPLIED >
<!ATTLIST g
  xmlns:vectornator CDATA #FIXED "http://vectornator.io"
  vectornator:shadowRadius CDATA #IMPLIED >
<!ATTLIST g
  xmlns:vectornator CDATA #FIXED "http://vectornator.io"
  vectornator:shadowOffset CDATA #IMPLIED >
<!ATTLIST g
  xmlns:vectornator CDATA #FIXED "http://vectornator.io"
  vectornator:shadowAngle CDATA #IMPLIED >

<!ENTITY % SVG.filter.extra.content  "| feDropShadow" >
<!ELEMENT feDropShadow EMPTY>
<!ATTLIST feDropShadow
  xmlns:svg CDATA #FIXED "http://www.w3.org/Graphics/SVG/1.1/DTD/svg11.dtd"
  dx CDATA #IMPLIED>
<!ATTLIST feDropShadow
  xmlns:svg CDATA #FIXED "http://www.w3.org/Graphics/SVG/1.1/DTD/svg11.dtd"
  dy CDATA #IMPLIED>
<!ATTLIST feDropShadow
  xmlns:svg CDATA #FIXED "http://www.w3.org/Graphics/SVG/1.1/DTD/svg11.dtd"
  stdDeviation CDATA #IMPLIED>
<!ATTLIST feDropShadow
  xmlns:svg CDATA #FIXED "http://www.w3.org/Graphics/SVG/1.1/DTD/svg11.dtd"
  flood-opacity CDATA #IMPLIED>
<!ATTLIST feDropShadow
  xmlns:svg CDATA #FIXED "http://www.w3.org/Graphics/SVG/1.1/DTD/svg11.dtd"
  in CDATA #IMPLIED>
<!ATTLIST feDropShadow
  xmlns:svg CDATA #FIXED "http://www.w3.org/Graphics/SVG/1.1/DTD/svg11.dtd"
  result CDATA #IMPLIED>
<!ATTLIST feDropShadow
  xmlns:svg CDATA #FIXED "http://www.w3.org/Graphics/SVG/1.1/DTD/svg11.dtd"
  flood-color CDATA #IMPLIED>
]
>
<!-- Created with Vectornator (http://vectornator.io/) -->
<svg height="100%" stroke-miterlimit="10" style="fill-rule:nonzero;clip-rule:evenodd;stroke-linecap:round;stroke-linejoin:round;" version="1.1" viewBox="0 0 1224 792" width="100%" xml:space="preserve" xmlns="http://www.w3.org/2000/svg" xmlns:vectornator="http://vectornator.io" xmlns:xlink="http://www.w3.org/1999/xlink">
<defs/>
<g id="Слой-1" vectornator:layerName="Слой 1">
<path d="M1104.15 181.551C1102.7 185.537 1101.9 189.947 1102.79 194.198C1103.3 196.911 1105.01 199.325 1107.31 200.581C1107.8 200.836 1108.32 201.136 1108.89 201.063C1111.08 200.658 1112.89 198.495 1113.07 196.125C1113.48 192.645 1112.06 189.295 1110.25 186.489C1108.72 184.273 1106.76 182.133 1104.15 181.551ZM1146.05 185.405C1142.76 186.647 1140.19 189.545 1138.37 192.632C1136.54 195.812 1135.35 199.574 1135.77 203.351C1136.11 206.334 1138.56 209.067 1141.42 209.133C1144.86 207.899 1147.51 204.595 1148.31 200.822C1149.39 195.923 1148.35 190.912 1146.85 186.249C1146.72 185.851 1146.56 185.113 1146.05 185.405ZM1086.3 187.935C1085 190.795 1084.49 194.001 1083.93 197.088C1083.53 200.65 1083.71 204.342 1085.06 207.687C1086.38 211.032 1089.17 213.703 1092.4 214.793C1095.02 214.404 1097.4 212.23 1098.16 209.494C1099.02 206.603 1098.49 203.515 1097.59 200.702C1096.23 196.767 1093.98 193.147 1090.93 190.464C1089.55 189.331 1088.08 188.135 1086.3 187.935ZM1124.14 189.741C1123.83 189.926 1123.58 190.175 1123.35 190.464C1120.94 193.212 1118.69 196.168 1117.25 199.618C1115.99 202.631 1115.3 206.109 1116.01 209.373C1116.61 211.767 1117.86 214.002 1119.62 215.636C1122.11 216.16 1124.97 215.514 1126.63 213.348C1129.21 210.026 1129.53 205.319 1129.22 201.183C1128.67 196.963 1127.32 192.563 1124.14 189.741ZM1068.11 197.57C1068.07 201.089 1068.54 204.656 1069.81 207.928C1070.64 210.028 1071.78 212.1 1073.53 213.468C1075.32 214.856 1077.53 215.658 1079.75 215.395C1081.46 214.336 1082.71 212.239 1082.57 210.096C1082.48 207.086 1080.66 204.551 1078.73 202.508C1075.89 199.652 1072.13 197.335 1068.11 197.57ZM1156.33 200.22C1154.34 200.505 1152.8 201.965 1151.48 203.472C1149.03 206.393 1147.16 210.198 1147.3 214.191C1147.32 216.13 1148.39 218.072 1150.01 219.009C1150.68 219.394 1151.47 219.861 1152.27 219.611C1155.18 218.532 1157.35 215.595 1157.92 212.384C1158.65 208.268 1157.62 204.101 1156.33 200.22ZM1054.1 200.581C1053.47 204.042 1053.04 207.56 1053.65 211.06C1054.19 214.463 1055.92 217.98 1058.96 219.491C1060.11 219.988 1061.49 220.77 1062.69 219.972C1064.78 218.862 1066.04 216.289 1065.74 213.83C1065.33 209.667 1062.88 206.03 1059.98 203.351C1058.28 201.902 1056.38 200.45 1054.1 200.581ZM1101.66 205.399C1100.82 210.359 1100.39 215.606 1102 220.454C1103.02 223.768 1105.45 226.591 1108.55 227.801C1109.44 228.125 1110.42 228.769 1111.38 228.403C1113.73 227.374 1115.47 224.772 1115.44 222.02C1115.5 218.451 1114.06 215.047 1112.05 212.264C1109.99 209.458 1107.33 206.876 1104.15 205.64C1103.36 205.447 1102.43 204.956 1101.66 205.399ZM1136.34 211.421C1135.41 211.652 1134.69 212.382 1133.97 212.987C1129.22 217.245 1125.16 222.688 1123.12 229.005C1122.4 231.464 1122.09 234.231 1123.24 236.593C1124.25 238.678 1126.4 239.597 1128.43 240.086C1130.7 240.583 1133.37 240.57 1135.21 238.882C1137.39 236.974 1138.25 233.893 1138.71 231.053C1139.49 224.42 1138.3 217.707 1136.34 211.421ZM1044.16 215.155C1042.78 218.893 1042.01 223.058 1042.58 227.078C1042.99 229.919 1044.6 232.56 1046.99 233.944C1047.67 234.31 1048.45 234.808 1049.25 234.546C1051.26 233.975 1052.87 232.072 1053.09 229.849C1053.52 226.376 1052.21 222.891 1050.38 220.093C1048.86 217.869 1046.84 215.579 1044.16 215.155ZM1166.61 216.479C1163.67 217.219 1161.52 219.783 1159.95 222.381C1158.38 225.133 1157.28 228.402 1157.92 231.655C1158.36 233.894 1160.23 235.882 1162.43 235.871C1164.51 235.173 1166.26 233.57 1167.29 231.535C1168.69 228.995 1168.53 225.94 1168.31 223.104C1167.98 220.826 1167.54 218.572 1166.61 216.479ZM1080.88 219.491C1078 225.206 1076.47 231.797 1076.92 238.279C1077.14 240.981 1077.9 243.884 1079.97 245.626C1081.79 247.072 1084.24 246.911 1086.3 246.229C1088.32 245.62 1090.37 244.225 1091.04 242.013C1091.98 239.188 1091.23 236.156 1090.25 233.462C1088.4 228.567 1085.38 224.258 1082.01 220.454C1081.69 220.084 1081.29 219.73 1080.88 219.491ZM1064.04 223.345C1060.04 227.592 1056.45 232.862 1055.8 239.002C1055.49 242.756 1056.96 246.645 1059.64 249.119C1062.37 249.967 1065.67 248.725 1067.21 246.108C1069.38 242.74 1069.56 238.481 1069.24 234.546C1068.73 231.193 1067.89 227.729 1065.85 225.031C1065.31 224.391 1064.86 223.618 1064.04 223.345ZM1146.62 224.79C1145.66 225.603 1144.88 226.582 1144.25 227.681C1141.98 231.77 1141.3 236.732 1141.76 241.411C1142.11 244.155 1142.95 246.967 1144.92 248.878C1146.45 250.385 1148.65 250.877 1150.69 250.564C1151.54 250.53 1151.97 249.717 1152.49 249.119C1154.67 246.306 1155.59 242.454 1154.87 238.882C1153.77 233.44 1150.71 228.667 1147.07 224.79C1146.95 224.774 1146.73 224.805 1146.62 224.79ZM1097.71 225.151C1095.63 228.558 1094.32 232.531 1094.09 236.593C1093.89 239.923 1095.19 243.459 1097.71 245.506C1098.36 246.026 1099.08 246.729 1099.97 246.59C1102.13 246.339 1104.22 244.769 1104.82 242.495C1105.91 238.768 1104.92 234.697 1103.35 231.294C1102.11 228.758 1100.32 226.184 1097.71 225.151ZM1027.9 230.33C1026.29 234.501 1025.52 239.096 1026.2 243.579C1026.81 246.389 1028.41 249.045 1030.83 250.444C1031.62 250.872 1032.52 251.606 1033.43 251.167C1035.61 250.481 1037.36 248.299 1037.5 245.867C1037.87 242.129 1036.29 238.5 1034.34 235.509C1032.72 233.204 1030.63 230.935 1027.9 230.33ZM1187.17 232.619C1185.95 232.125 1184.59 232.712 1183.44 233.221C1179.56 235.163 1176.25 238.652 1174.75 242.977C1173.9 245.351 1174.07 248.361 1175.88 250.203C1176.51 250.785 1177.23 251.567 1178.14 251.528C1181.54 251.158 1184.69 248.676 1185.93 245.265C1187.65 241.311 1187.46 236.866 1187.17 232.619ZM1110.92 235.75C1109.92 237.253 1109.43 239.017 1109.12 240.809C1108.6 245.538 1109.34 250.521 1111.38 254.78C1112.53 257.243 1114.13 259.612 1116.46 260.922C1118.78 262.271 1121.7 261.874 1123.91 260.441C1126.25 256.398 1126.19 250.952 1123.8 246.951C1121.07 242.095 1116.56 238.725 1111.94 236.111C1111.6 235.984 1111.3 235.596 1110.92 235.75ZM1041.79 238.761C1041.03 243.278 1040.54 248.107 1041.68 252.612C1042.38 255.78 1044.12 258.718 1046.76 260.441C1048.1 261.25 1049.48 262.045 1051.05 262.006C1053.3 261.135 1055.19 258.909 1055.46 256.346C1055.76 253.289 1054.7 250.237 1053.2 247.674C1051.12 244.19 1048.35 241.099 1044.73 239.484C1043.81 239.125 1042.79 238.545 1041.79 238.761ZM1169.1 240.086C1167.48 240.071 1165.96 240.823 1164.58 241.652C1161.56 243.54 1159.08 246.251 1157.35 249.481C1156.05 251.947 1155.07 254.795 1155.43 257.671C1155.71 260.28 1157.61 262.576 1159.95 263.331C1163.95 262.823 1167.52 259.576 1168.76 255.503C1170.49 250.535 1169.98 245.189 1169.1 240.086ZM1073.87 244.181C1069.74 248.363 1066.46 253.657 1064.5 259.357C1063.45 262.556 1062.8 266.035 1063.82 269.353C1064.42 271.577 1066.37 273.13 1068.45 273.569C1071.01 274.093 1073.87 274.172 1076.02 272.364C1078 270.757 1078.79 268.035 1079.07 265.499C1079.48 258.99 1077.69 252.588 1075.23 246.71C1074.83 245.851 1074.52 244.867 1073.87 244.181ZM1134.76 246.349C1134.02 247.725 1133.68 249.298 1133.29 250.805C1132.08 256.294 1131.37 262.083 1132.5 267.667C1133.1 270.388 1134.33 273.214 1136.79 274.532C1139.23 275.816 1142.14 275.313 1144.59 274.292C1146.91 273.444 1148.49 270.867 1148.43 268.269C1148.56 264.581 1146.96 261.134 1145.26 258.032C1142.53 253.445 1139.09 249.286 1134.76 246.349ZM1013.89 247.072C1013.83 249.828 1014.03 252.618 1014.79 255.262C1015.6 258.214 1016.88 261.279 1019.31 263.09C1021.12 264.424 1023.44 265.298 1025.64 264.897C1027.3 263.714 1028.44 261.523 1028.24 259.357C1028.02 256.424 1026.32 253.878 1024.39 251.889C1021.59 249.018 1017.87 246.864 1013.89 247.072ZM1195.19 247.553C1194.36 247.218 1193.59 247.606 1192.82 247.915C1189.83 249.206 1187.36 251.706 1185.59 254.539C1184.22 256.79 1183.25 259.398 1183.44 262.127C1183.59 264.366 1185.11 266.395 1187.06 267.185C1187.78 267.32 1188.54 267.079 1189.21 266.824C1191.75 265.822 1193.81 263.651 1194.74 260.922C1196.35 256.671 1195.77 251.963 1195.19 247.553ZM1090.82 248.517C1090.04 250.101 1089.5 251.78 1089.46 253.576C1089.31 257.827 1090.27 262.282 1092.85 265.62C1094.22 267.381 1096.42 268.662 1098.61 268.149C1099.4 267.944 1100.28 267.841 1100.87 267.185C1102.16 264.839 1102.38 261.822 1101.66 259.236C1100.37 255.24 1097.22 252.423 1093.98 250.203C1092.96 249.559 1092.01 248.747 1090.82 248.517ZM822.305 251.287C819.97 251.688 817.693 252.842 815.528 254.9C813.745 256.427 812.969 259.194 813.268 263.09C813.544 266.987 813.014 269.688 811.687 271.16C811.231 272.17 811.473 273.383 812.478 274.894C813.483 276.431 813.993 277.534 813.946 278.266C813.961 281.75 813.945 286.303 813.833 291.876C813.721 297.445 813.706 302.231 813.72 306.209C813.716 310.19 813.725 314.586 813.833 319.457C813.942 324.329 814.275 329.197 814.85 333.91C815.45 338.597 816.21 343.158 817.222 347.641C817.244 347.872 817.498 348.509 817.787 349.688C818.072 350.844 818.195 351.661 818.239 352.097C818.282 352.506 818.412 353.213 818.691 354.265C818.965 355.317 819.199 356.083 819.368 356.553C819.535 357 819.798 357.781 820.159 358.721C820.542 359.635 820.919 360.267 821.176 360.648C821.458 361.057 821.784 361.536 822.192 362.214C822.601 362.888 823.016 363.468 823.435 363.78C823.876 364.088 824.424 364.397 825.017 364.743C825.609 365.113 826.111 365.3 826.711 365.466C829.277 366.383 832.34 366.354 835.861 365.225C839.356 364.096 840.33 362.036 838.685 359.203C838.287 358.629 837.703 357.976 836.99 357.155C836.3 356.331 835.7 355.694 835.183 355.108C834.659 354.495 834.428 353.901 834.392 353.542C831.168 345.233 829.125 338.952 828.405 334.512C827.661 330.049 827.494 323.36 827.954 314.519C830.097 313.421 833.215 312.204 837.216 310.785C841.193 309.344 844.619 307.928 847.496 306.69C850.377 305.453 853.281 303.85 856.307 301.873C859.329 299.896 861.768 297.312 863.424 294.044C865.054 290.783 865.803 286.839 865.796 282.241C865.839 278.152 864.794 274.664 862.633 271.762C860.475 268.883 857.513 266.779 853.822 265.499C850.131 264.247 846.557 263.351 843.09 262.85C839.646 262.341 835.868 262.146 831.794 262.127C831.342 261.946 831.026 260.631 830.665 258.273C830.3 255.883 829.615 254.295 828.631 253.455C826.744 251.605 824.641 250.89 822.305 251.287ZM1032.75 258.032C1031.89 262.464 1031.55 267.224 1033.09 271.521C1034.25 274.801 1037.05 277.404 1040.32 277.905C1042.9 277.354 1044.64 274.367 1044.39 271.642C1044.17 267.926 1042.23 264.623 1039.87 262.006C1037.95 260.006 1035.56 258.067 1032.75 258.032ZM1178.14 259.357C1177.36 259.203 1176.59 259.569 1175.88 259.839C1172.76 261.218 1170.21 263.822 1168.42 266.824C1167.04 269.221 1166.12 272.057 1166.73 274.894C1167.1 276.821 1168.51 278.45 1170.23 279.109C1170.69 279.283 1171.12 279.085 1171.58 278.989C1174.6 278.083 1177.08 275.416 1178.02 272.244C1179.32 268.074 1179 263.589 1178.14 259.357ZM1088.9 267.306C1087.31 267.98 1085.79 268.946 1084.38 269.956C1081.52 272.072 1078.9 274.707 1077.26 278.025C1075.7 281.12 1075.5 284.905 1076.81 288.142C1077.07 288.732 1077.2 289.551 1077.83 289.829C1080.05 291.031 1082.91 290.973 1084.94 289.347C1087.8 287.127 1089.43 283.533 1090.25 279.952C1091.18 275.79 1091.32 271.156 1089.35 267.306C1089.23 267.298 1089.02 267.314 1088.9 267.306ZM1105.39 267.426C1105.32 267.553 1105.13 267.777 1105.05 267.908C1104.3 274.218 1104.78 280.835 1107.2 286.697C1108.25 289.102 1109.86 291.515 1112.28 292.478C1114.23 293.126 1116.4 292.356 1118.04 291.153C1119.99 289.878 1121.66 287.803 1121.65 285.252C1121.71 281.618 1119.46 278.619 1117.25 276.098C1113.85 272.479 1109.75 269.522 1105.39 267.426ZM792.258 268.149C790.613 268.211 789.17 268.654 787.739 269.594C786.311 270.562 784.989 271.561 783.785 272.605C782.607 273.646 781.414 275.118 780.171 276.941C778.952 278.787 777.901 280.469 777.121 281.879C776.369 283.282 775.439 284.935 774.297 287.058C773.154 289.178 772.276 290.812 771.585 291.876C770.573 289.564 769.534 286.05 768.648 281.398C767.784 276.715 767.036 273.48 766.389 271.642C765.908 271.206 764.764 270.234 763 268.631C759.657 267.929 757.123 267.886 755.319 268.51C753.519 269.158 751.842 270.863 750.349 273.569C748.877 276.271 747.759 278.893 746.96 281.518C746.136 284.147 745.142 287.081 743.91 290.431C742.648 293.757 741.344 296.394 739.956 298.259C738.9 296.675 738.246 294.622 738.036 292.117C737.83 289.608 737.881 287.152 738.149 284.77C738.416 282.388 738.11 280.29 737.358 278.387C736.606 276.483 735.279 275.267 733.291 274.773C727.728 273.478 724.113 275.228 722.447 280.073C720.81 284.917 720.622 290.812 721.995 297.657C722.899 303.211 723.688 310.412 724.367 319.457C725.065 328.472 726.501 335.338 728.547 339.932C729.725 342.461 731.864 343.558 735.099 343.184C738.356 342.806 740.699 341.176 741.989 338.367C743.092 329.194 744.26 321.431 745.604 315.121C746.927 308.82 749.616 303.552 753.625 299.343C755.295 303.621 756.431 309.528 757.013 316.928C757.603 324.359 757.914 330.914 758.03 336.56C760.369 339.547 763.334 340.148 766.728 338.487C770.148 336.826 772.26 334.37 773.167 331.14C775.184 316.406 778.651 303.773 783.559 293.201C783.729 292.457 784.082 291.723 784.689 291.033C786.092 289.322 786.891 289.372 787.061 291.033C791.724 311.375 792.492 329.182 789.433 344.63C789.3 345.473 789.332 346.428 789.433 347.4C789.528 348.344 789.716 349.169 789.998 349.809C790.28 350.444 790.55 350.679 790.789 350.652C793.543 352.243 796.367 352.559 799.374 351.615C802.407 350.671 804.205 348.661 804.57 345.593C808.239 328.265 807.358 307.09 801.972 282C801.802 281.295 801.522 279.79 801.294 277.543C801.063 275.269 800.718 273.507 800.165 272.124C799.634 270.736 798.781 269.705 797.567 268.992C795.683 268.356 793.873 268.064 792.258 268.149ZM1050.94 269.233C1049.99 270.933 1049.38 272.823 1049.13 274.773C1048.65 279.429 1049.48 284.178 1051.39 288.383C1052.59 290.911 1054.32 293.32 1056.7 294.646C1059.03 295.826 1062.06 295.5 1064.16 293.924C1065.35 291.607 1065.85 288.851 1065.63 286.215C1065.28 282.4 1063.27 279.002 1060.77 276.339C1057.91 273.379 1054.66 270.802 1050.94 269.233ZM1210.56 269.715C1207.6 269.495 1204.61 269.38 1201.74 270.317C1198.79 271.08 1196.02 273.291 1195.08 276.459C1194.87 277.284 1194.49 278.133 1194.74 278.989C1195.63 280.939 1197.81 282.122 1199.82 281.879C1202.82 281.602 1205.38 279.557 1207.39 277.303C1209.13 275.21 1210.66 272.609 1210.56 269.715ZM1159.61 270.678C1157.67 271.53 1155.92 272.802 1154.19 274.051C1150.74 276.691 1147.48 279.975 1145.94 284.288C1144.73 287.861 1145.04 292.135 1146.96 295.369C1149.67 297.3 1153.58 296.978 1156 294.646C1159.37 291.528 1160.98 286.843 1161.64 282.241C1162.2 278.36 1161.89 274.159 1160.06 270.678C1159.94 270.667 1159.73 270.694 1159.61 270.678ZM1020.33 271.04C1019.61 277.364 1019.88 283.901 1022.25 289.829C1023.31 292.418 1024.94 295.093 1027.56 296.091C1029.72 296.87 1032.03 295.875 1033.77 294.526C1035.6 293.231 1037.01 291.037 1036.93 288.624C1036.81 285.614 1035.12 282.992 1033.32 280.795C1030.41 277.361 1026.95 274.581 1023.15 272.364C1022.25 271.886 1021.31 271.321 1020.33 271.04ZM1190.45 272.364C1189.44 272.522 1188.63 273.227 1187.74 273.689C1183.49 276.195 1179.43 279.438 1176.44 283.566C1174.83 285.836 1173.57 288.597 1174.18 291.515C1175.01 294.621 1177.7 296.72 1180.51 297.537C1182.41 298.092 1184.46 297.265 1185.82 295.851C1188.07 293.492 1189.09 290.234 1189.88 287.058C1190.92 282.287 1191.2 277.198 1190.45 272.364ZM700.645 273.328C697.768 273.401 695.105 274.124 692.625 275.496C689.936 277.874 688.821 279.909 689.349 281.759C689.83 283.15 690.656 285.266 691.834 288.022C693.038 290.805 693.927 293.099 694.545 294.887C695.189 296.675 695.604 298.752 695.788 301.03C695.947 303.311 695.474 305.366 694.432 307.293C693.438 308.726 691.109 309.938 687.429 310.906C683.745 311.873 681.379 311.613 680.312 310.183C678.389 306.765 677.204 301.765 676.697 295.128C676.192 288.495 675.429 283.226 674.438 279.23C673.9 277.249 672.506 275.954 670.146 275.376C667.763 274.824 665.449 274.879 663.255 275.496C661.043 276.113 659.731 277.025 659.301 278.266C658.22 283.354 657.796 287.354 658.172 290.31C658.522 293.293 659.403 297.415 660.657 302.595C661.933 307.748 662.625 311.742 662.69 314.76C662.654 315.357 661.87 316.518 660.431 318.132C659.021 319.743 658.287 320.992 658.172 321.986C658.135 322.819 658.648 323.632 659.866 324.395C661.059 325.162 661.761 325.703 661.786 325.961C663.363 330.247 663.652 336.558 662.69 344.991C661.754 353.42 661.384 359.113 661.673 361.973C665.773 362.224 669.113 361.533 671.614 359.926C674.09 358.295 675.703 355.939 676.584 352.94C677.47 349.945 678.124 346.893 678.392 343.786C678.634 340.684 678.824 337.326 679.07 333.549C679.297 329.803 679.852 326.798 680.651 324.636C681.154 322.898 682.473 321.704 684.718 320.902C686.962 320.097 689.214 319.707 691.382 319.819C693.526 319.93 694.815 320.348 695.223 321.023C697.775 322.769 698.686 327.48 697.934 335.115C697.182 342.746 697.62 348.069 699.29 351.133C703.353 350.794 706.472 349.784 708.779 348.122C711.103 346.457 712.665 344.289 713.41 341.618C714.155 338.924 714.566 336.377 714.653 333.91C714.74 331.42 714.647 328.479 714.427 325.118C714.181 321.761 714.246 319.219 714.427 317.651C714.362 317.038 714.44 316.113 714.766 314.76C715.087 313.403 715.172 312.346 714.992 311.749C714.811 311.175 714.414 310.167 713.749 308.617C713.08 307.064 712.581 305.942 712.28 305.125C711.966 303.22 711.774 299.866 711.716 295.248C711.632 290.604 711.31 286.699 710.699 283.566C710.114 280.428 708.693 277.773 706.632 275.376C705.465 273.934 703.519 273.228 700.645 273.328ZM836.765 274.894C838.955 274.77 841.205 275.144 843.316 275.857C847.893 276.281 850.001 278.572 849.755 282.843C849.629 288.516 847.335 293.01 842.752 296.332C838.168 299.628 833.969 300.604 830.326 299.343C828.442 298.476 827.742 295.272 828.179 289.588C828.624 283.93 829.81 279.815 831.794 277.182C832.918 275.837 834.57 275.017 836.765 274.894ZM1125.83 275.376C1125.16 280.224 1125.19 285.428 1127.19 289.949C1128.35 292.682 1130.61 294.723 1133.29 295.61C1134.02 295.837 1134.77 296.133 1135.55 295.971C1138.01 294.977 1139.63 292.114 1139.28 289.347C1138.9 285.485 1136.66 282.076 1134.08 279.471C1131.83 277.27 1128.98 275.383 1125.83 275.376ZM1098.95 279.711C1097.75 279.889 1096.86 280.96 1095.9 281.638C1093.12 283.886 1090.61 286.656 1089.35 290.19C1088.38 292.938 1088.64 296.085 1090.03 298.621C1090.26 299.029 1090.48 299.449 1090.93 299.584C1092.82 300.301 1095.12 300.175 1096.69 298.741C1098.9 296.857 1099.93 293.893 1100.53 291.033C1101.22 287.26 1100.97 283.011 1098.95 279.711ZM626.768 282.722C618.476 282.468 611.927 285.391 607 291.515C602.069 297.643 600.202 305.127 601.352 314.037C604.207 337.848 612.671 352.272 626.768 357.155C628.171 357.614 629.593 357.883 631.061 357.999C632.554 358.134 633.766 358.174 634.789 358.239C635.815 358.301 637.296 358.158 639.194 357.758C641.07 357.361 642.263 357.147 642.809 357.035C643.377 356.888 644.801 356.494 646.988 355.831C649.175 355.164 650.365 354.777 650.603 354.747C654.016 353.733 656.053 351.147 656.703 347.038C657.35 342.907 656.113 339.803 652.975 337.764C650.329 339.645 647.949 341.165 645.972 342.221C643.973 343.304 641.772 344.216 639.307 344.991C636.838 345.742 634.538 345.711 632.416 344.87C630.294 344.03 628.49 342.384 626.881 339.932C626.353 339.27 626.468 338.464 627.22 337.523C627.975 336.583 628.576 336.003 629.14 335.837C630.12 334.507 634.53 330.772 642.244 324.636C649.933 318.501 654.005 313.765 654.67 310.304C654.037 302.88 650.995 296.409 645.407 291.033C639.815 285.633 633.575 282.892 626.768 282.722ZM478.223 282.843C476.307 283.063 474.57 283.997 473.027 285.493C471.483 287.015 470.372 288.485 469.638 290.069C468.879 291.657 467.99 294.021 466.927 296.935C466.403 298.442 465.748 299.857 465.007 301.391C464.266 302.921 463.843 304.01 463.651 304.522C463.485 305.008 463.377 306 463.312 307.533C463.226 309.04 463.604 310.65 464.442 312.231C465.02 313.379 465.84 313.685 467.04 313.315C468.258 312.914 469.399 312.352 470.429 311.508C471.484 310.664 472.447 309.779 473.253 308.858C476.683 304.715 478.947 301.415 480.144 299.103C481.315 296.798 482.456 293.235 483.645 288.263C483.992 287.137 483.503 285.929 482.064 284.65C480.625 283.366 479.326 282.716 478.223 282.843ZM1006.09 283.806C1004.16 283.428 1002.15 283.467 1000.22 284.047C1000.14 284.525 1000.18 285.03 1000.33 285.493C1001.26 288.538 1002.54 291.395 1004.4 293.924C1005.94 295.955 1007.96 297.798 1010.39 298.38C1012.11 298.734 1014.04 298.708 1015.7 298.019C1017.4 296.377 1017.85 293.568 1016.83 291.394C1015.8 288.982 1013.74 287.246 1011.63 285.974C1009.91 284.974 1008.03 284.185 1006.09 283.806ZM1206.49 284.89C1203.17 285.172 1199.88 286.489 1197.23 288.624C1195.79 289.807 1194.51 291.38 1193.84 293.201C1193.15 295.294 1193.76 297.744 1195.19 299.343C1198.11 300.453 1201.54 299.918 1204 297.898C1206.48 295.917 1208.19 293.056 1209.43 290.069C1209.96 288.605 1210.63 287.082 1210.78 285.493C1209.45 284.799 1207.93 284.84 1206.49 284.89ZM330.356 289.347C328.056 289.548 326.203 290.098 324.821 291.033C322.081 292.925 319.71 295.403 317.591 298.621C315.491 301.812 314.18 305.598 313.638 309.822C313.124 314.042 312.11 318.804 310.701 324.034C310.744 327.776 311.332 330.609 312.395 332.706C313.461 334.833 313.751 336.986 313.299 339.21C313.277 342.339 312.84 344.523 311.943 345.714C311.253 346.773 310.967 347.903 311.039 349.086C311.112 350.292 311.294 351.362 311.717 352.217C312.144 353.073 312.673 354.088 313.299 355.228C313.924 356.373 314.35 357.297 314.541 357.999C314.733 358.931 315.277 360.611 316.123 363.178C316.936 365.718 317.528 367.655 317.817 368.838C318.11 370.018 318.592 371.743 319.286 374.017C319.951 376.291 320.301 378.129 320.528 379.678C320.734 381.204 321.007 383.012 321.206 384.978C321.408 386.97 321.586 388.855 321.658 390.759C321.709 391.244 320.931 392.384 319.399 394.011C317.866 395.633 316.826 396.725 316.349 397.503C315.727 399.253 316.245 400.693 317.817 401.598C319.386 402.501 321.023 402.746 322.788 402.442C328.799 401.486 334.351 398.999 339.506 395.095C344.661 391.191 350.167 386.136 355.885 379.919C364.521 370.233 367.329 362.016 364.358 355.228C362.615 351.448 359.261 348.537 354.417 346.436C349.551 344.335 344.176 343.092 338.15 342.702C337.467 342.675 337.33 342.281 337.699 341.618C338.273 340.597 338.94 340.141 339.732 340.053C340.675 338.133 341.758 336.36 343.121 334.753C344.487 333.15 346.097 330.75 347.865 327.647C349.662 324.549 351.535 321.74 353.4 319.096C354.394 317.662 355.118 315.693 355.772 313.315C355.888 308.728 355.043 304.507 353.174 300.668C351.309 296.853 346.534 293.266 338.715 289.829C335.498 289.295 332.656 289.145 330.356 289.347ZM1042.24 292.719C1041.71 297.556 1041.66 302.686 1043.71 307.172C1045.08 310.344 1047.92 312.81 1051.17 313.315C1052.34 313.584 1053.35 312.577 1054.1 311.749C1055.72 310.145 1056.04 307.562 1055.57 305.366C1054.57 301.068 1051.8 297.513 1048.46 295.008C1046.63 293.736 1044.48 292.492 1042.24 292.719ZM1072.4 293.562C1069.19 296.164 1066.27 299.477 1064.83 303.559C1063.77 306.346 1063.98 309.633 1065.4 312.231C1065.76 312.828 1066.07 313.542 1066.76 313.796C1068.78 314.598 1071.28 314.07 1072.74 312.351C1074.4 310.547 1075.18 308.054 1075.57 305.606C1076.03 301.61 1075.75 297.141 1073.42 293.803C1073.21 293.41 1072.75 293.142 1072.4 293.562ZM542.95 293.924C540.979 294.029 538.264 294.845 534.817 296.573C532.348 297.818 532.144 300.993 534.139 306.088C534.346 307.148 535.042 310.682 536.286 316.687C537.526 322.696 538.397 326.751 538.997 328.852C539.6 330.952 540.633 334.276 541.934 338.728C543.231 343.153 544.769 346.92 546.565 350.049C548.358 353.148 550.363 355.972 552.665 358.601C553.912 358.689 555.156 358.732 556.28 358.601C557.408 358.47 558.342 358.323 559.217 358.119C560.092 357.888 560.962 357.368 561.815 356.674C562.639 355.961 563.332 355.353 563.961 354.867C564.59 354.381 565.322 353.579 565.995 352.338C566.674 351.124 567.193 350.224 567.576 349.688C567.985 349.176 568.511 348.199 569.158 346.677C569.779 345.158 570.11 344.065 570.287 343.425C570.443 342.812 570.901 341.632 571.53 339.932C572.133 338.233 572.463 337.175 572.546 336.801C572.666 336.789 572.969 336.994 573.45 337.403C573.848 337.977 574.09 338.407 574.354 338.607C574.585 339.926 574.825 341.814 574.919 344.389C575.009 346.963 576.891 349.032 580.68 350.531C584.793 350.909 587.355 351.916 588.248 353.542C589.166 355.196 589.564 357.017 589.604 359.083C589.64 361.117 590.432 362.041 591.976 361.732L594.8 361.612L597.737 359.805L599.318 353.301L598.98 346.436C599.012 344.367 597.791 342.558 595.478 341.016L589.943 339.812C586.884 338.821 585.35 335.954 585.198 331.14C585.05 326.35 584.824 322.934 584.52 320.902C584.253 319.484 583.967 317.125 583.617 313.676C583.262 310.203 582.803 307.234 582.261 304.763C581.744 302.289 581 300.063 580.002 298.139C578.502 295.776 576.314 294.884 573.563 295.489C570.791 296.117 568.997 297.783 568.028 300.427C566.897 303.815 565.461 310.036 563.848 319.216C562.236 328.397 560.145 335.173 557.635 339.571C555.676 334.603 553.732 327.261 551.761 317.41C549.788 307.559 548.146 300.376 546.678 295.971C546.185 294.451 544.921 293.819 542.95 293.924ZM1166.39 294.285C1162.53 295.534 1159.44 298.587 1157.24 302.114C1155.75 304.518 1154.79 307.409 1155.32 310.304C1155.84 312.242 1157.22 314.015 1159.05 314.64C1163.04 314.374 1166.46 311.266 1167.74 307.293C1169.1 303.146 1169.23 298.59 1168.65 294.285C1168.2 293.514 1167.06 294.231 1166.39 294.285ZM625.3 297.778C627.406 297.579 629.718 297.796 632.19 298.621C637.11 300.301 638.873 303.404 637.5 307.774C636.206 315.059 630.568 319.517 620.555 321.143C619.203 321.194 617.919 319.772 616.828 316.928C615.743 314.107 615.413 310.897 615.811 307.413C616.183 303.933 617.446 301.413 619.539 299.825C621.281 298.603 623.193 297.976 625.3 297.778ZM1118.27 298.621C1113.09 299.496 1108.13 301.693 1103.92 305.004C1103.92 305.737 1104.83 306.002 1105.28 306.449C1109.37 309.382 1113.94 311.749 1118.83 312.712C1121.38 313.086 1124.3 313.222 1126.4 311.388C1128.32 309.673 1128.8 306.825 1128.66 304.282C1128.65 302.115 1127.38 300.017 1125.5 299.223C1123.22 298.213 1120.67 298.251 1118.27 298.621ZM336.682 298.741C338.449 298.898 339.794 300.113 340.748 302.354C342.682 306.837 343.245 310.379 342.443 312.953C341.615 315.528 340.526 317.842 339.167 319.939C337.562 323.018 335.481 326.157 332.954 329.213C330.431 332.296 327.553 333.667 324.256 333.428C324.328 331.972 324.003 329.992 323.352 327.406C322.68 324.847 322.361 322.83 322.336 321.384C322.437 317.858 322.891 315.023 323.578 312.953C324.265 310.884 326.389 307.018 330.13 301.391C332.711 299.466 334.914 298.584 336.682 298.741ZM428.181 298.982C426.957 298.807 425.757 299.02 424.566 299.584C422.495 300.421 420.85 301.846 419.596 303.8C418.316 305.758 417.808 307.779 418.014 309.822C417.638 323.978 417.721 334.089 418.353 340.294C419.019 346.861 421.289 360.705 425.244 381.726C425.848 384.32 427.196 385.765 429.311 386.062C431.451 386.358 433.508 385.857 435.298 384.616C437.109 383.371 438.131 382.097 438.348 380.883C438.894 377.433 438.935 373.818 438.574 369.802C438.241 365.809 437.667 362.18 436.879 358.962C436.088 355.721 435.246 351.863 434.281 347.4C433.316 342.913 432.686 339.055 432.361 335.837C431.28 325.235 432.015 315.352 434.733 306.329C435.308 304.348 434.399 302.499 431.909 300.668C430.653 299.753 429.405 299.157 428.181 298.982ZM1024.85 301.993C1020.44 303.145 1016.16 305.048 1012.53 308.015C1012.59 308.123 1012.7 308.385 1012.76 308.497C1015.61 310.837 1018.78 312.77 1022.14 314.158C1024.99 315.252 1027.98 316.277 1031.06 315.964C1033.08 315.806 1035.22 314.756 1036.26 312.833C1037.3 311.006 1037.42 308.772 1037.27 306.69C1037.11 304.517 1035.45 302.664 1033.54 301.993C1030.72 300.964 1027.7 301.28 1024.85 301.993ZM1180.73 302.595C1179.21 302.633 1177.7 303.031 1176.33 303.8C1174.6 304.694 1173.63 306.722 1173.62 308.738C1173.5 311.343 1174.02 314.217 1176.1 315.844C1178.37 317.586 1181.39 317.387 1184.01 316.928C1189.28 315.694 1194.13 313.066 1198.47 309.701C1198.4 309.609 1198.31 309.429 1198.24 309.34C1194.43 306.295 1189.91 304.098 1185.25 303.077C1183.79 302.78 1182.26 302.557 1180.73 302.595ZM1080.88 303.559C1078.85 311.271 1077.31 319.121 1076.24 327.045C1076.06 327.885 1076.32 328.869 1075.79 329.574C1070.86 325.473 1066.09 321.121 1060.88 317.41C1060.57 317.109 1060.15 317.277 1059.98 317.651C1057.93 320.811 1055.9 323.99 1053.88 327.165C1053.71 327.524 1053.26 328.197 1053.76 328.49C1064.92 337 1075.49 346.469 1084.26 357.758C1088.14 362.81 1091.64 368.329 1093.75 374.499C1094.78 377.297 1095.04 380.335 1095.33 383.291C1095.4 396.866 1095.3 410.423 1095.45 424.001C1094.61 423.923 1093.86 423.47 1093.08 423.158C1090.97 422.256 1088.82 421.629 1086.64 420.99C1074.56 417.81 1061.97 417.365 1049.58 417.376C1049.39 415.445 1049.54 413.53 1049.58 411.595C1053.5 411.456 1057.4 410.189 1060.66 407.861C1065.2 404.601 1068.93 400.071 1073.98 397.624C1075.05 397.042 1076.42 396.651 1077.03 395.456C1075.29 395.325 1073.45 395.509 1071.73 395.817C1066.77 396.403 1061.93 397.638 1056.93 397.383C1056.21 397.341 1055.4 397.117 1055.01 396.419C1053.74 394.33 1053.72 391.808 1053.31 389.434C1052.83 385.368 1052.52 381.175 1050.94 377.39C1049.88 374.518 1047.62 371.964 1044.73 371.247C1041.46 370.565 1038.08 370.975 1034.9 371.97C1030.46 373.442 1026.3 376.744 1024.62 381.485C1023.86 381.249 1023.35 380.727 1022.7 380.28C1020.18 378.476 1017.74 376.397 1015.13 374.74C1017.05 378.039 1019.31 381.12 1021.12 384.496C1020.71 385.224 1019.81 385.51 1019.2 386.062C1017.83 387.141 1016.1 388.012 1015.02 389.434C1018.13 389.453 1021.27 388.564 1024.39 388.591C1024.63 393.197 1025.67 397.792 1028.01 401.719C1030.33 405.758 1034.16 408.801 1038.4 410.15C1038.71 410.246 1038.99 410.146 1039.31 410.15C1039.48 412.693 1039.43 415.307 1039.31 417.858C1036.21 417.947 1033.13 418.129 1030.04 418.46C1030.07 422.877 1030.8 427.319 1031.17 431.709C1033.49 431.674 1035.75 431.381 1038.06 431.227C1050.5 430.541 1063.08 430.433 1075.45 432.191C1080.34 433.004 1085.26 434.015 1089.8 436.165C1091.6 437.04 1093.42 438.207 1094.66 439.899C1095.68 441.525 1095.42 443.465 1095.45 445.319C1095.4 467.187 1095.35 489.084 1095.33 510.96C1095.3 516.537 1095.67 522.182 1094.66 527.701C1092.65 540.863 1085.57 553.218 1074.89 560.341C1073.89 561.123 1072.66 561.627 1071.84 562.629C1094.42 562.637 1117.03 562.664 1139.62 562.629C1139.52 562.282 1139.3 562.002 1139.05 561.786C1133.05 556.714 1128.04 550.33 1124.25 543.238C1120.35 535.796 1117.86 527.368 1118.04 518.788C1118.01 474.477 1118.04 430.248 1118.04 385.941C1117.99 383.282 1119 380.809 1120.07 378.474C1122.84 372.588 1126.52 367.221 1129.9 361.732C1132.32 357.809 1134.75 353.83 1137.92 350.531C1142.3 345.775 1147.62 341.857 1153.51 339.571C1155.36 338.839 1157.28 338.164 1159.27 338.126C1159.5 333.701 1158.72 329.297 1158.71 324.877C1157.59 324.738 1156.41 325.022 1155.32 325.238C1152.54 325.812 1149.9 326.724 1147.3 327.888C1146.91 328.042 1146.45 328.056 1146.05 328.129C1146.05 327.285 1146.45 326.53 1146.62 325.72C1148.22 318.802 1149.34 311.672 1149.1 304.522C1144.96 304.465 1140.81 304.531 1136.68 304.643C1136.53 313.11 1135.04 321.557 1132.16 329.454C1128.05 341.047 1121.33 351.293 1114.88 361.491C1114.47 360.987 1114.89 360.162 1114.88 359.564C1116.12 347.266 1115.86 334.745 1113.63 322.589C1113.48 321.941 1113.53 321.07 1112.96 320.662C1112.28 320.635 1111.57 320.97 1110.92 321.143C1107.74 322.218 1104.52 323.102 1101.32 324.154C1101.27 324.528 1101.26 324.865 1101.32 325.238C1101.95 329.339 1102.66 333.485 1102.79 337.644C1103.31 345.58 1102.86 353.47 1102.11 361.371C1101.72 361.267 1101.65 360.844 1101.43 360.528C1098.09 354.346 1093.84 348.806 1089.35 343.546C1088.87 342.929 1088.09 342.354 1087.99 341.498C1087.63 339.305 1087.97 337.086 1087.99 334.874C1088.82 325.662 1090.69 316.626 1092.74 307.654C1093.13 306.636 1092.01 306.499 1091.38 306.329C1087.86 305.496 1084.41 304.287 1080.88 303.559ZM374.976 303.679C373.983 303.691 372.966 304.247 371.926 305.245C369.877 307.241 368.721 309.543 368.424 312.11C367.951 314.103 368.224 318.364 369.102 324.877C369.987 331.417 370.366 335.585 370.345 337.523C370.276 338.025 369.924 338.66 369.328 339.451C368.728 340.244 368.365 340.896 368.198 341.378C368.068 342.249 368.164 343.152 368.424 344.027C368.684 344.902 369.104 345.901 369.78 347.038C370.452 348.175 370.881 348.87 371.022 349.086C372.515 353.746 373.826 360.274 374.863 368.838C375.904 377.402 376.708 383.23 377.348 386.182C378.74 388.683 379.952 389.932 381.076 390.036C386.335 390.514 391.405 389.443 396.213 386.664C401.042 383.858 406.078 380.032 411.237 375.222C414.551 372.046 416.974 368.16 418.466 363.539C419.981 358.895 419.768 354.556 418.014 350.652C416.092 346.296 413.206 342.758 409.316 340.053C405.409 337.378 401.264 335.714 396.891 334.874C392.491 334.064 387.838 333.687 382.77 333.91C381.44 331.767 380.623 329.315 380.511 326.563C380.399 323.785 380.646 321.186 381.076 318.735C381.502 316.279 381.452 313.877 381.076 311.388C380.704 308.898 379.655 306.759 377.913 305.125C376.966 304.149 375.969 303.668 374.976 303.679ZM455.292 309.099C453.366 309.051 450.627 309.724 447.159 311.147C444.657 312.288 444.261 315.314 445.916 320.421C446.017 321.392 446.447 324.921 447.272 330.899C448.125 336.9 448.765 340.994 449.192 343.064C449.622 345.133 450.304 348.364 451.338 352.82C452.354 357.306 453.672 361.128 455.179 364.262C456.687 367.395 458.501 370.271 460.601 373.054C461.859 373.27 463.04 373.341 464.103 373.295C465.187 373.221 466.158 373.208 467.04 373.054C467.944 372.873 468.756 372.376 469.638 371.729C470.542 371.081 471.378 370.599 472.01 370.163C472.647 369.727 473.31 368.876 474.044 367.754C474.781 366.664 475.333 365.881 475.738 365.346C476.121 364.81 476.728 363.858 477.432 362.455C478.137 361.056 478.553 360.135 478.788 359.564C479.02 358.994 479.464 357.849 480.144 356.192C480.827 354.538 481.318 353.442 481.499 353.06C481.619 353.045 481.794 353.34 482.177 353.783C482.585 354.461 482.955 354.904 483.194 355.108C483.317 356.311 483.147 358.436 482.742 361.612C482.315 364.815 482.455 367.231 483.081 368.838C484.176 371.736 486.432 373.04 489.971 372.813C493.514 372.582 495.683 371.084 496.41 368.236C497.043 365.604 497.287 362.721 497.088 359.564C496.885 356.385 496.407 352.551 495.619 348.122C494.828 343.69 494.346 340.523 494.151 338.607C494.006 337.178 493.829 334.8 493.699 331.381C493.569 327.958 493.365 325.032 493.021 322.589C492.649 320.153 491.976 317.907 491.101 315.964C489.825 313.452 487.832 312.39 485.114 312.833C482.37 313.253 480.448 314.734 479.353 317.289C477.979 320.473 476.194 326.596 474.044 335.476C471.889 344.333 469.463 350.801 466.701 354.867C465.172 349.849 463.742 342.449 462.409 332.706C461.082 322.986 459.816 315.854 458.681 311.388C458.296 309.867 457.218 309.148 455.292 309.099ZM284.493 315.242C279.917 315.28 276.681 317.779 274.892 322.589C274.639 323.444 273.279 326.197 270.825 330.899C268.367 335.578 266.91 339.856 266.307 343.907C265.092 351.053 265.992 357.841 269.018 364.262C272.047 370.656 276.488 375.424 282.46 378.353C284.831 379.525 287.879 379.727 291.497 379.076C295.115 378.424 297.701 376.991 299.291 374.74C308.798 361.466 311.446 348.991 307.199 337.283C304.676 330.337 301.295 324.782 297.145 320.662C293.256 317.004 289.07 315.176 284.493 315.242ZM1195.08 317.41C1193.31 317.818 1191.6 319.21 1191.47 321.264C1191.23 323.198 1191.4 325.356 1192.59 326.925C1193.8 328.659 1196 329.068 1197.9 328.972C1201.26 328.687 1204.44 327.273 1207.39 325.6C1208.86 324.74 1210.24 323.822 1211.46 322.589C1208.79 320.361 1205.67 318.893 1202.42 317.891C1200.06 317.252 1197.49 316.855 1195.08 317.41ZM246.538 317.651C244.168 317.401 241.743 317.512 239.309 318.012C234.414 318.991 229.91 320.791 225.753 323.311C221.6 325.859 217.803 329.058 214.344 332.947C210.682 336.99 208.667 341.666 208.244 347.038C207.843 352.384 208.991 357.454 211.633 362.214C215.244 367.714 218.752 371.046 222.251 372.09C227.984 373.855 234.218 371.918 241.003 366.429L242.02 365.827C242.797 365.608 243.005 366.863 242.697 369.561C242.676 370.289 242.676 370.775 242.697 371.006C244.49 377.67 245.787 382.713 246.651 386.182C247.511 389.647 248.431 394.659 249.475 401.358C250.495 408.041 250.705 413.296 250.04 417.015C249.003 420.133 248.183 421.847 247.442 422.194C244.796 422.861 242.322 422.608 240.099 421.471C237.898 420.331 235.379 418.308 232.531 415.329C229.679 412.326 227.953 407.307 227.335 400.274C233.397 379.542 232.564 372.778 224.962 380.039C217.389 387.324 214.978 399.949 217.733 417.979C220.964 425.436 226.757 430.317 235.129 432.552C243.523 434.784 250.87 433.519 257.044 428.698C260.622 425.985 262.575 422.443 263.031 418.099C263.511 413.782 263.207 408.601 262.014 402.562C261.468 399.367 260.505 394.278 259.077 387.386C257.624 380.499 256.547 375.092 255.914 371.006C255.282 366.917 254.649 361.996 254.107 356.192C253.568 350.414 253.659 344.898 254.22 339.691C254.758 334.511 255.836 329.411 257.495 324.516C257.709 322.292 256.372 320.699 253.542 319.578C251.234 318.579 248.909 317.9 246.538 317.651ZM1014.91 318.373C1009.97 319.83 1005.81 323.353 1002.59 327.527C1002.47 327.959 1003.04 327.955 1003.27 328.129C1007.31 329.671 1011.61 330.713 1015.92 330.297C1017.83 330.05 1019.95 329.398 1021.23 327.768C1022.35 326.376 1022.42 324.312 1022.14 322.589C1021.87 320.974 1021.11 319.346 1019.65 318.614C1018.2 317.901 1016.42 318.003 1014.91 318.373ZM1041 319.698C1037.78 319.941 1034.73 321.461 1032.08 323.311C1028.89 325.589 1026.03 328.397 1023.83 331.742C1026.25 332.848 1028.82 333.44 1031.4 333.91C1034.19 334.508 1037.04 334.576 1039.87 334.272C1042.45 333.913 1045.24 332.93 1046.65 330.417C1047.87 327.897 1047.46 324.803 1046.31 322.348C1045.29 320.344 1043.06 319.486 1041 319.698ZM1169.44 320.902C1168.22 320.905 1167.06 321.229 1166.05 321.986C1164.01 323.605 1163.33 326.526 1163.45 329.093C1163.48 331.332 1165 333.311 1166.84 334.272C1169.72 335.871 1173.06 335.852 1176.22 335.717C1179.88 335.432 1183.44 334.399 1186.95 333.308C1187.04 332.626 1186.51 332.221 1186.16 331.742C1182.65 327.318 1178.24 323.533 1173.05 321.625C1171.93 321.255 1170.65 320.9 1169.44 320.902ZM234.903 330.297C236.624 329.815 237.814 330.269 238.631 331.622C239.806 333.167 240.548 335.297 240.664 338.126C240.783 340.958 240.359 343.328 239.535 345.232C239.274 345.984 238.618 348.17 237.501 351.736C236.388 355.305 235.251 357.874 234.112 359.323C232.956 360.804 231.386 361.519 229.481 361.612C226.34 361.974 223.875 358.143 221.912 350.049C220.741 345.22 221.88 340.726 225.527 336.56C226.858 335.088 228.346 333.796 229.933 332.706C231.52 331.619 233.208 330.802 234.903 330.297ZM178.083 330.538C175.186 330.886 172.331 331.59 169.498 332.706C163.859 334.933 159.099 337.793 155.152 341.378C154.147 342.707 154.485 345.612 156.282 349.929C158.078 354.242 160.36 355.675 163.172 354.265C164.589 353.637 166.67 352.582 169.272 351.013C171.875 349.421 173.669 348.375 174.807 347.881C175.968 347.384 177.989 346.744 180.794 345.954C183.596 345.137 185.925 344.946 187.685 345.593C189.398 345.759 190.318 347.424 190.622 350.411C190.926 353.375 190.732 355.491 189.944 356.794L187.233 356.915C185.415 356.891 183.14 357.022 180.342 357.396C177.548 357.797 174.531 358.602 171.418 359.685C168.306 360.768 165.158 362.627 161.93 365.225C158.68 367.823 156.005 371.097 153.796 375.101C151.884 378.477 150.914 382.637 150.972 387.748C151.059 392.881 152.355 397.071 154.813 400.274C156.291 402.405 157.966 404.22 159.896 405.573C161.848 406.895 164.118 407.788 166.674 408.343C169.226 408.902 171.452 409.235 173.339 409.427C175.226 409.624 177.781 409.793 181.02 409.909C184.256 410.025 186.67 410.1 188.25 410.15C189.041 410.058 190.041 410.949 191.187 412.679C192.311 414.436 193.264 415.57 194.237 416.052C196.742 417.339 198.756 416.845 200.224 414.606C202.244 411.118 203.01 401.787 202.37 386.664C202.269 383.291 202.366 379.185 202.822 374.379C203.299 369.542 203.801 365.399 204.177 361.973C204.582 358.566 204.435 354.751 203.839 350.531C203.238 346.311 201.932 342.598 199.998 339.33C197.117 334.339 192.797 331.475 186.894 330.658C183.932 330.238 180.98 330.19 178.083 330.538ZM111.549 334.272C107.457 334.441 103.697 335.093 100.365 336.319C91.8633 339.472 85.524 345.015 81.2748 352.82C77.0242 360.601 74.7177 369.491 74.3841 379.558C74.0924 394.323 78.4702 404.926 87.4877 411.354C91.8652 414.36 98.4423 416.813 107.143 418.701C124.819 422.316 138.609 419.256 148.6 409.548C150.943 406.846 151.631 404.256 150.633 401.839C149.657 399.419 147.48 397.136 144.195 394.854C143.19 394.014 141.908 393.942 140.354 394.613C138.771 395.26 137.43 395.965 136.287 396.901C135.12 397.811 133.786 398.956 132.221 400.274C130.663 401.615 129.352 402.57 128.38 403.044C121.794 406.208 115.112 406.414 108.273 403.766C101.459 401.118 96.6873 396.347 93.8136 389.313C90.9398 382.28 90.2512 375.219 91.7803 368.116C93.3346 360.985 97.1717 355.813 103.302 352.699C104.918 351.894 107.87 351.728 112.113 352.217C116.354 352.684 119.448 352.47 121.602 351.495C122.249 351.186 123.457 350.736 125.217 350.17C126.981 349.607 128.34 348.975 129.284 348.243C130.231 347.541 131.004 346.491 131.543 345.111C132.533 342.699 132.189 340.524 130.526 338.728C128.889 336.928 127.073 335.837 124.991 335.356C120.136 334.469 115.64 334.102 111.549 334.272ZM285.171 334.633C286.174 333.942 286.973 333.989 287.656 334.633C290.906 337.747 293.271 341.396 294.547 345.593C295.845 349.782 295.723 353.345 294.208 356.312C292.686 359.253 289.979 360.43 286.075 359.926C281.39 359.382 278.562 357.323 277.716 353.542C276.704 349.087 278.022 344.085 281.669 338.728C282.991 336.703 284.169 335.325 285.171 334.633ZM1053.09 335.476C1052.06 335.213 1050.92 335.212 1049.92 335.596C1047.38 336.564 1045.35 338.516 1043.6 340.655C1040.67 344.409 1038.26 348.771 1037.16 353.542C1040.52 353.704 1043.83 353.17 1047.1 352.338C1049.85 351.571 1052.69 350.54 1055.01 348.725C1056.73 347.406 1058.26 345.446 1058.17 343.064C1058.23 340.828 1057.08 338.816 1055.8 337.162C1055.11 336.293 1054.11 335.738 1053.09 335.476ZM1028.69 338.487C1025.36 339.616 1022.72 342.262 1020.44 344.991C1019.76 345.931 1019.02 346.819 1018.75 348.002C1022.68 348.853 1026.78 349.469 1030.72 348.363C1032.41 347.843 1034.15 346.79 1034.67 344.87C1035.09 343.005 1034.64 340.95 1033.54 339.451C1032.38 337.997 1030.27 337.928 1028.69 338.487ZM1167.29 339.932C1166.2 339.905 1165.17 340.091 1164.24 340.775C1162.68 341.858 1162.02 343.887 1161.53 345.714C1160.97 347.991 1161.39 350.641 1163.11 352.217C1165.64 354.618 1169.25 355.115 1172.49 355.469C1176.43 355.65 1180.44 355.471 1184.24 354.265C1183.75 352.858 1182.78 351.629 1181.98 350.411C1178.94 346.264 1175.2 342.617 1170.57 340.655C1169.57 340.291 1168.38 339.959 1167.29 339.932ZM1191.47 342.582C1190.13 342.674 1188.77 343.186 1187.96 344.389C1187.16 345.437 1187.29 346.854 1187.4 348.122C1187.58 349.803 1188.44 351.526 1190 352.097C1191.89 352.814 1194 352.492 1195.87 351.856C1198.89 350.962 1201.64 349.25 1204.23 347.4C1203.76 346.463 1202.77 346.028 1201.97 345.473C1198.77 343.692 1195.14 342.254 1191.47 342.582ZM1002.03 344.75C1000.66 344.685 999.313 344.942 997.961 345.111C990.638 345.971 983.254 346.836 975.934 347.761C975.847 355.612 975.865 363.517 975.934 371.368C975.428 371.607 974.873 371.286 974.352 371.247C971.793 370.789 968.852 371.6 967.236 373.897C965.92 375.608 966.168 378.238 967.575 379.799C969.635 382.13 973.07 382.638 975.821 381.605C977.625 380.865 979.386 379.194 979.549 377.028C979.7 369.829 979.379 362.661 979.549 355.469C985.773 354.76 992.065 353.809 998.3 353.181C998.438 358.314 998.445 363.464 998.3 368.597C995.665 367.908 992.504 368.004 990.393 370.043C988.524 371.6 988.314 374.926 989.941 376.787C992.453 379.767 997.059 380.036 999.995 377.631C1001.16 376.71 1002.01 375.218 1002.03 373.656C1002.04 364.04 1001.93 354.37 1002.03 344.75ZM392.824 345.232C396.479 345.895 399.726 347.293 402.539 349.447C405.351 351.605 406.871 354.191 407.283 357.035C407.862 361.544 406.202 365.482 402.313 368.959C398.401 372.435 393.975 374.643 388.983 375.583C386.207 369.262 384.166 359.314 382.77 345.593C385.836 344.749 389.195 344.569 392.824 345.232ZM1067.21 346.557C1064.9 346.854 1063.25 348.83 1062.01 350.772C1059.47 355.046 1058.15 360.075 1057.94 365.105L1058.17 365.225C1060.1 364.886 1061.9 364.08 1063.71 363.298C1067.08 361.625 1070.57 359.49 1072.63 356.071C1073.85 354.137 1073.75 351.519 1072.4 349.688C1071.17 348 1069.36 346.252 1067.21 346.557ZM1145.26 349.568C1143.41 349.641 1141.77 351.101 1140.97 352.82C1139.89 355.017 1139.27 357.734 1140.41 360.046C1141.54 362.309 1143.85 363.619 1146.05 364.382C1151.34 366.093 1157.02 365.809 1162.43 364.984C1162.23 364.117 1161.71 363.342 1161.3 362.575C1159.09 358.729 1156.36 355.257 1152.95 352.579C1150.7 350.917 1148.1 349.333 1145.26 349.568ZM335.326 352.458C338.092 352.501 340.885 353.274 343.798 354.747C346.737 356.215 348.453 357.921 348.995 359.926C349.634 361.664 349.853 363.295 349.672 364.864C349.495 366.463 348.824 368.146 347.526 369.922C346.228 371.699 345.169 373.123 344.363 374.017C343.532 374.888 341.995 376.284 339.732 378.353C337.447 380.427 336.084 381.675 335.665 382.087C334.863 380.861 334.233 379.581 333.745 378.112C333.257 376.667 332.764 374.859 332.276 372.692C331.763 370.503 331.451 369.058 331.26 368.357C331.054 367.293 330.426 365.553 329.565 363.298C328.709 361.047 328.296 359.565 328.21 358.721C328.127 357.904 328.282 356.617 328.662 354.867C330.313 353.229 332.536 352.42 335.326 352.458ZM188.702 369.802C189.844 371.941 190.573 374.09 190.848 376.306C191.119 378.499 191.185 380.363 190.961 381.966C190.737 383.57 190.36 385.768 189.944 388.35C189.528 390.932 189.207 393.034 189.041 394.733C188.122 395.693 185.851 396.363 182.15 396.66C178.423 396.965 174.441 396.396 170.176 394.974C165.881 393.533 163.637 391.567 163.398 389.193C163.149 385.578 163.854 382.581 165.657 380.28C167.457 377.952 169.619 376.4 171.983 375.583C174.326 374.77 177.219 373.9 180.794 372.813C184.369 371.753 187.003 370.719 188.702 369.802ZM560.234 378.233C553.897 380.26 549.641 384.956 547.469 392.445C545.3 399.957 544.527 407.921 545.21 416.292C545.893 424.664 545.896 433.569 545.21 443.03C544.526 452.493 542.478 459.494 538.997 464.108C536.112 467.931 531.539 468.581 525.328 465.914C519.089 463.224 514.989 458.967 513.016 453.148C510.572 446.063 510.804 435.765 513.58 422.314C516.353 408.841 516.643 398.764 514.597 392.204C513.737 388.997 511.881 386.729 509.062 385.218C506.242 383.711 503.641 384.214 501.154 386.905C492.504 396.721 487.137 410.739 485.001 428.818C482.886 446.871 484.643 462.202 490.423 474.948C493.105 482.729 497.938 488.991 504.882 493.616C511.801 498.241 519.13 500.043 526.797 499.156C527.661 499.056 528.91 498.739 530.638 498.072C532.387 497.406 533.702 497.169 534.591 497.35C535.459 497.508 536.006 498.365 536.173 499.999C537.257 503.749 537.787 510.738 537.867 520.836C537.925 530.934 539.125 537.311 541.482 539.986C546.969 548.164 551.898 549.535 556.167 544.081C556.745 543.083 557.842 541.615 559.556 539.866C561.291 538.089 562.642 536.52 563.51 535.048C564.402 533.576 564.577 532.067 564.074 530.471C562.173 527.018 561.18 522.058 561.024 515.536C560.873 509.042 561.013 504.055 561.363 500.602C561.692 497.179 562.305 492.35 563.397 486.149C563.642 485.008 564.153 483.251 564.865 480.97C565.581 478.692 566.143 476.876 566.447 475.55C566.721 474.224 566.959 472.51 567.35 470.371C567.737 468.209 568.043 466.375 568.141 464.71C568.217 463.045 568.098 461.118 567.802 458.929C567.487 456.766 567.021 454.493 566.447 452.184C565.427 447.158 565.298 440.674 566.108 432.672C566.943 424.667 567.942 417.572 569.045 411.475C570.147 405.378 570.062 399.22 568.819 392.927C567.572 386.637 564.712 381.748 560.234 378.233ZM1029.82 381.123C1031.52 382.33 1033.11 383.989 1035.24 384.255C1037.62 384.401 1039.46 382.694 1041.56 381.846C1041.03 383.276 1039.87 384.309 1038.74 385.218C1037.27 386.409 1035.17 386.695 1033.54 385.7C1031.88 384.698 1030.58 382.977 1029.82 381.123ZM865.57 386.664L857.211 387.627C854.478 389.597 852.767 392.589 852.127 396.54C852.988 411.687 853.809 423.894 854.5 433.275C855.186 442.656 856.99 454.541 859.922 468.805C862.828 483.096 866.762 495.292 871.783 505.54C872.654 507.455 874.665 508.524 877.77 508.551C880.871 508.555 883.769 507.457 886.581 505.299C889.364 503.141 890.778 500.259 890.76 496.748C890.692 492.724 889.64 486.598 887.597 478.199C885.533 469.809 884.566 463.481 884.66 459.411C883.884 456.763 884.142 455.454 885.338 455.316L887.71 456.4C890.324 458.5 894.994 462.027 901.718 467.119C908.441 472.233 914.189 476.715 918.888 480.488C923.587 484.257 928.039 488.018 932.217 491.93C934.198 494.466 937.098 495.441 940.916 494.82C944.729 494.196 947.508 492.024 949.388 488.317C954.213 483.341 954.836 478.776 951.308 474.586C926.355 453.045 907.854 438.051 895.618 429.541C898.314 425.56 902.771 420.96 909.06 415.811C915.347 410.665 919.043 407.506 920.131 406.296C922.838 404.326 924.612 401.873 925.44 398.828C926.246 395.791 925.094 393.193 921.938 391C918.648 389.157 915.464 388.081 912.449 387.989C909.409 387.877 906.394 388.862 903.412 390.759C900.408 392.682 898.016 394.389 896.296 396.058C894.571 397.708 892.038 400.472 888.727 404.369C885.412 408.242 883.263 410.867 882.175 412.077L880.707 412.438C879.695 412.735 878.78 412.888 877.996 412.8C877.211 412.707 876.615 412.21 876.188 411.354C875.375 405.01 874.808 399.478 874.494 394.733L874.155 391.24C872.698 388.824 869.777 387.288 865.57 386.664ZM692.512 395.456C688.959 396.05 685.526 397.851 682.233 400.996C679.536 403.324 678.41 407.482 678.844 413.402C679.274 419.322 678.496 423.436 676.471 425.687C675.781 427.24 676.192 429.159 677.714 431.468C679.232 433.773 679.915 435.409 679.86 436.527C679.893 441.845 679.815 448.771 679.634 457.243C679.454 465.714 679.485 472.972 679.521 479.043C679.532 485.09 679.599 491.85 679.747 499.277C679.896 506.7 680.429 514.04 681.329 521.197C682.225 528.354 683.378 535.239 684.944 542.034C684.98 542.392 685.198 543.497 685.621 545.286C686.07 547.066 686.347 548.263 686.412 548.899C686.477 549.539 686.776 550.668 687.203 552.271C687.611 553.878 687.861 555.043 688.107 555.764C688.37 556.458 688.792 557.485 689.349 558.895C689.928 560.298 690.42 561.309 690.818 561.907C691.244 562.504 691.785 563.298 692.399 564.315C693.014 565.353 693.665 566.137 694.319 566.604C694.974 567.097 695.766 567.657 696.692 568.169C697.595 568.709 698.503 569.089 699.403 569.374C703.325 570.754 707.947 570.623 713.297 568.892C718.622 567.165 720.087 564.145 717.59 559.859C716.971 558.999 716.062 557.972 714.992 556.728C713.918 555.455 713.054 554.272 712.28 553.355C711.485 552.438 710.983 551.723 710.925 551.187C706.027 538.522 703.012 528.808 701.888 522.04C700.767 515.296 700.611 505.186 701.323 491.689C704.594 490.02 709.25 488.085 715.33 485.908C721.389 483.734 726.552 481.763 730.919 479.886C735.311 478.009 739.858 475.556 744.475 472.539C749.065 469.529 752.57 465.489 755.093 460.495C757.595 455.527 758.85 449.525 758.821 442.549C758.886 436.289 757.359 431.052 754.076 426.65C750.769 422.253 746.258 419.043 740.634 417.135C735.009 415.201 729.609 413.804 724.367 413.04C719.126 412.277 713.404 411.987 707.197 411.956C706.463 411.679 705.812 409.662 705.277 406.055C704.734 402.42 703.625 399.98 702.114 398.708C699.258 395.91 696.087 394.862 692.512 395.456ZM1004.96 406.777C1004.14 406.982 1003.21 406.915 1002.59 407.621C1005.22 412.592 1008.4 417.33 1012.76 420.749C1014.83 422.337 1017.37 423.671 1019.99 423.278C1022.21 422.919 1023.81 421.071 1024.85 419.063C1025.98 417.108 1026.24 414.388 1024.96 412.438C1023.51 410.226 1021.19 408.97 1018.86 408.102C1014.43 406.51 1009.59 406.373 1004.96 406.777ZM782.317 408.343C779.376 408.27 775.196 409.418 769.891 411.595C766.117 413.322 765.458 418.034 767.971 425.807C768.119 427.264 768.852 432.575 770.117 441.706C771.386 450.84 772.367 456.98 773.054 460.133C773.712 463.263 774.79 468.149 776.33 474.948C777.895 481.769 779.898 487.64 782.204 492.412C784.485 497.214 787.145 501.696 790.337 505.901C792.264 506.248 794.122 506.374 795.759 506.262C797.375 506.177 798.809 506.043 800.165 505.781C801.524 505.545 802.854 504.84 804.232 503.854C805.587 502.871 806.761 502.127 807.733 501.445C808.684 500.793 809.758 499.636 810.896 497.952C812.009 496.249 812.894 494.892 813.494 494.098C814.113 493.277 814.913 491.901 815.98 489.762C817.071 487.619 817.8 486.048 818.126 485.185C818.473 484.318 819.129 482.624 820.159 480.127C821.211 477.602 821.91 476.124 822.192 475.55C822.359 475.53 822.747 475.858 823.322 476.513C823.962 477.55 824.418 478.241 824.791 478.561C824.975 480.372 824.731 483.701 824.113 488.557C823.491 493.41 823.749 496.946 824.678 499.397C826.337 503.806 829.786 505.879 835.183 505.54C840.576 505.201 843.905 502.921 845.011 498.554C845.99 494.592 846.236 490.154 845.914 485.306C845.593 480.484 844.877 474.722 843.655 467.962C842.462 461.225 841.692 456.302 841.396 453.388C841.176 451.218 841.023 447.534 840.831 442.308C840.665 437.082 840.273 432.619 839.702 428.939C839.156 425.227 838.201 421.918 836.878 418.942C834.936 415.111 831.899 413.555 827.728 414.245C823.574 414.904 820.587 417.128 818.917 420.99C816.816 425.834 814.175 435.062 810.896 448.571C807.614 462.079 803.906 471.882 799.713 478.079C797.385 470.44 795.178 459.19 793.161 444.355C791.144 429.521 789.245 418.736 787.513 411.956C786.937 409.632 785.257 408.416 782.317 408.343ZM1039.76 409.668C1040.91 409.641 1042.11 409.637 1043.26 409.668L1043.26 410.029C1042.1 410.052 1040.91 410.041 1039.76 410.029L1039.76 409.668ZM1043.26 411.354C1044.03 411.385 1044.83 411.187 1045.52 411.595C1045.85 413.572 1045.62 415.726 1045.63 417.738C1044.84 417.649 1044.04 417.641 1043.26 417.738C1043.11 415.599 1043.31 413.489 1043.26 411.354ZM1008.47 422.676C1004.14 422.518 1000.02 424.424 996.38 426.771C996.709 427.596 997.544 427.948 998.187 428.457C1001.21 430.523 1004.48 432.457 1008.13 432.672C1009.93 432.857 1011.86 431.966 1012.65 430.143C1013.23 428.606 1013.6 426.789 1012.99 425.205C1012.2 423.397 1010.19 422.753 1008.47 422.676ZM602.368 429.18C599.428 429.106 595.348 430.135 590.056 432.311C586.278 434.042 585.627 438.874 588.135 446.644C588.284 448.1 589.013 453.291 590.282 462.422C591.55 471.552 592.448 477.693 593.106 480.849C593.764 483.975 594.933 488.985 596.494 495.784C598.063 502.606 599.978 508.473 602.255 513.248C604.562 518.046 607.31 522.533 610.502 526.738C612.425 527.084 614.199 527.207 615.811 527.099C617.452 527.01 618.974 526.755 620.329 526.497C621.685 526.262 623.044 525.673 624.396 524.69C625.777 523.703 626.947 522.839 627.898 522.161C628.874 521.506 629.834 520.348 630.948 518.668C632.083 516.961 632.95 515.728 633.546 514.934C634.142 514.113 635.052 512.617 636.144 510.478C637.21 508.339 637.943 506.889 638.29 506.022C638.641 505.15 639.29 503.46 640.324 500.963C641.35 498.443 642.05 496.84 642.357 496.266C642.523 496.243 642.912 496.57 643.487 497.229C644.101 498.27 644.583 498.957 644.955 499.277C645.139 501.088 644.899 504.421 644.277 509.273C643.659 514.126 643.775 517.786 644.729 520.234C646.363 524.647 649.951 526.715 655.348 526.376C660.741 526.037 663.953 523.637 665.062 519.27C666.038 515.308 666.401 510.987 666.079 506.142C665.757 501.32 665.016 495.442 663.82 488.678C662.623 481.941 661.857 477.139 661.561 474.225C661.34 472.055 661.074 468.367 660.883 463.144C660.691 457.918 660.299 453.46 659.753 449.775C659.207 446.064 658.274 442.75 656.929 439.779C654.988 435.947 651.929 434.395 647.779 435.081C643.629 435.744 640.773 437.96 639.081 441.826C637.006 446.667 634.343 455.898 631.061 469.407C627.782 482.916 624.071 492.722 619.878 498.915C617.55 491.277 615.343 480.026 613.326 465.192C611.283 450.361 609.384 439.572 607.678 432.793C607.088 430.469 605.309 429.253 602.368 429.18ZM1023.6 430.264C1021.28 429.628 1018.95 430.737 1017.05 432.07C1013.38 434.814 1010.33 438.679 1008.47 443.03C1012.76 443.663 1017.24 443.77 1021.46 442.549C1023.25 441.982 1025.09 441.238 1026.31 439.658C1027.58 438.016 1027.55 435.501 1026.77 433.636C1026.19 432.117 1025.18 430.672 1023.6 430.264ZM714.653 431.468C717.978 431.264 721.267 431.691 724.48 432.793C731.457 433.46 734.804 437.033 734.421 443.512C734.258 452.165 730.666 458.942 723.69 463.987C716.709 469.005 710.49 470.604 704.938 468.685C702.064 467.367 700.873 462.383 701.549 453.75C702.221 445.12 704.164 438.74 707.197 434.72C708.882 432.689 711.305 431.672 714.653 431.468ZM88.2784 432.793C81.9161 434.82 77.6852 439.52 75.5137 447.005C73.3691 454.517 72.5962 462.477 73.2545 470.853C73.9366 479.224 74.0293 488.133 73.3675 497.591C72.6814 507.053 70.5234 514.051 67.0416 518.668C64.1581 522.491 59.6072 523.142 53.3732 520.475C47.1605 517.784 43.034 513.527 41.0603 507.708C38.6189 500.628 38.8482 490.326 41.6251 476.875C44.3756 463.401 44.6668 453.448 42.6418 446.885C41.7818 443.674 40.0395 441.285 37.2196 439.779C34.3997 438.268 31.6888 438.895 29.1993 441.585C20.5498 451.398 15.1821 465.299 13.0458 483.378C10.9311 501.431 12.8001 516.762 18.5809 529.508C21.2627 537.285 26.0087 543.551 32.9271 548.176C39.8696 552.801 47.1751 554.723 54.8417 553.837C55.7042 553.737 56.9563 553.295 58.6824 552.632C60.4326 551.962 61.7689 551.725 62.6361 551.91C63.5245 552.064 64.0513 552.925 64.2175 554.56C65.2782 558.313 65.8306 565.298 65.912 575.396C65.9937 585.49 67.2832 591.871 69.6397 594.546C75.1259 602.725 79.9449 604.099 84.2118 598.641C84.7902 597.647 86.0002 596.292 87.7136 594.546C89.4234 592.769 90.6615 591.08 91.5543 589.608C92.4472 588.136 92.6216 586.627 92.1191 585.031C90.2178 581.582 89.221 576.618 89.0692 570.097C88.9174 563.598 89.0538 558.615 89.4081 555.162C89.737 551.739 90.4663 546.906 91.5543 540.709C91.7784 539.572 92.1725 537.811 92.9099 535.53C93.622 533.252 94.213 531.432 94.4913 530.11C94.795 528.78 95.1212 527.07 95.508 524.931C95.8948 522.765 96.0882 520.939 96.1858 519.27C96.2581 517.609 96.1397 515.678 95.8469 513.489C95.5288 511.327 95.0661 509.057 94.4913 506.744C93.4719 501.723 93.4557 495.238 94.2654 487.233C95.097 479.227 95.987 472.132 97.0895 466.035C98.1884 459.938 98.1107 453.777 96.8635 447.487C95.6201 441.197 92.7571 436.308 88.2784 432.793ZM1034.34 435.322C1032.2 435.661 1030.44 437.505 1030.04 439.779C1029.23 444.08 1030.72 448.338 1032.41 452.184C1033.91 455.291 1035.66 458.35 1038.06 460.735C1040.88 455.667 1043.01 449.941 1043.26 443.994C1043.33 441.369 1042.88 438.42 1040.89 436.647C1039.08 435.075 1036.55 434.987 1034.34 435.322ZM1024.39 444.235C1022.39 443.818 1020.63 445.437 1019.65 447.125C1017.45 451.03 1016.7 455.737 1017.05 460.254C1019.94 459.186 1022.58 457.603 1024.96 455.556C1026.62 454.065 1028.37 452.169 1028.69 449.775C1028.98 447.077 1026.7 444.813 1024.39 444.235ZM213.779 462.06L205.42 463.024C202.687 464.993 200.955 467.99 200.337 471.936C201.175 487.087 201.909 499.294 202.596 508.671C203.308 518.048 205.112 529.937 208.018 544.202C210.95 558.493 215 570.684 219.992 580.936C220.889 582.848 222.874 583.796 225.979 583.827C229.084 583.827 232.003 582.854 234.79 580.695C237.577 578.537 238.963 575.659 238.97 572.144C238.897 568.12 237.871 561.866 235.807 553.476C233.739 545.081 232.751 538.877 232.87 534.807C232.067 532.159 232.234 530.726 233.435 530.592L235.92 531.676C238.555 533.776 243.204 537.424 249.927 542.515C256.654 547.63 262.31 552.107 266.984 555.884C271.684 559.658 276.135 563.418 280.314 567.326C282.316 569.862 285.311 570.841 289.125 570.217C292.917 569.601 295.721 567.417 297.597 563.713C302.423 558.734 303.049 554.176 299.517 549.983C274.59 528.442 256.063 513.444 243.827 504.938C246.527 500.952 251.005 496.349 257.27 491.207C263.559 486.062 267.252 482.906 268.34 481.692C271.073 479.723 272.843 477.262 273.649 474.225C274.455 471.184 273.19 468.469 270.034 466.276C266.745 464.433 263.673 463.474 260.658 463.385C257.64 463.269 254.629 464.139 251.621 466.035C248.643 467.958 246.247 469.778 244.505 471.455C242.781 473.1 240.248 475.865 236.936 479.765C233.621 483.635 231.447 486.267 230.385 487.473L228.803 487.835C227.791 488.132 226.989 488.285 226.205 488.196C225.421 488.107 224.821 487.606 224.398 486.751C223.581 480.411 223.014 474.878 222.703 470.13L222.251 466.637C220.795 464.221 217.965 462.688 213.779 462.06ZM431.005 471.455C429.512 471.085 428.176 471.326 427.051 472.177C417.794 474.359 410.579 475.608 405.363 476.032C400.147 476.452 393.035 476.779 384.013 476.995C374.994 477.211 367.905 477.606 362.776 478.199C358.536 478.689 355.15 480.77 352.497 484.462C349.869 488.178 349.124 492.12 350.237 496.386L350.576 497.229C350.612 497.588 350.998 497.983 351.819 498.434C352.643 498.904 353.692 499.321 355.095 499.518C378.591 503.418 400.886 500.851 421.855 491.809C422.173 491.594 423.051 491.096 424.453 490.364C425.838 489.663 426.819 489.149 427.39 488.798C427.962 488.474 428.852 487.777 430.214 486.871C431.602 485.985 432.428 485.261 432.7 484.583C432.971 483.904 433.596 482.867 434.507 481.572C435.396 480.281 435.629 479.139 435.185 478.079C434.736 477.019 434.525 475.578 434.507 473.743C433.708 472.544 432.52 471.821 431.005 471.455ZM130.413 483.74C127.479 483.666 123.394 484.696 118.1 486.871C114.301 488.602 113.668 493.43 116.18 501.204C116.328 502.661 117.032 507.972 118.326 517.102C119.595 526.232 120.602 532.377 121.263 535.53C121.921 538.659 122.974 543.549 124.539 550.344C126.083 557.17 127.998 563.033 130.3 567.808C132.606 572.607 135.38 577.089 138.547 581.298C140.499 581.641 142.244 581.771 143.856 581.659C145.493 581.574 147.022 581.315 148.374 581.057C149.733 580.822 151.085 580.237 152.441 579.25C153.796 578.267 154.967 577.52 155.943 576.841C156.919 576.182 157.992 574.908 159.106 573.228C160.215 571.521 161.082 570.288 161.704 569.494C162.3 568.673 163.097 567.181 164.189 565.038C165.255 562.899 165.988 561.449 166.335 560.582C166.661 559.718 167.313 558.021 168.368 555.523C169.399 552.999 170.123 551.524 170.402 550.946C170.572 550.927 170.931 551.138 171.531 551.789C172.146 552.83 172.628 553.521 173 553.837C173.184 555.652 172.944 558.981 172.322 563.834C171.7 568.686 171.849 572.343 172.774 574.794C174.437 579.203 177.999 581.276 183.392 580.936C188.789 580.597 192.001 578.197 193.107 573.83C194.087 569.864 194.449 565.551 194.124 560.702C193.802 555.88 193.065 550.002 191.865 543.238C190.646 536.505 189.902 531.699 189.605 528.785C189.385 526.615 189.207 522.931 189.041 517.704C188.845 512.478 188.457 508.02 187.911 504.335C187.365 500.628 186.432 497.31 185.087 494.339C183.146 490.504 180.087 488.955 175.937 489.641C171.787 490.305 168.818 492.52 167.126 496.386C165.047 501.227 162.384 510.459 159.106 523.967C155.827 537.476 152.115 547.278 147.922 553.476C145.594 545.837 143.413 534.583 141.371 519.752C139.353 504.917 137.454 494.132 135.722 487.353C135.148 485.029 133.348 483.813 130.413 483.74Z" fill="#5c832f" fill-rule="evenodd" opacity="1" stroke="none"/>
</g>
</svg>
